<svg xmlns="http://www.w3.org/2000/svg" viewBox="0 0 750 300" width="750" height="300">
  <defs>
    <marker id="arrHead2" markerWidth="10" markerHeight="7" refX="10" refY="3.5" orient="auto">
      <polygon points="0 0, 10 3.5, 0 7" fill="#4f46e5"/>
    </marker>
  </defs>

  <rect width="750" height="300" fill="#f8f9fa" rx="12"/>

  <!-- Left panel: Spectrogram -->
  <text x="160" y="22" text-anchor="middle" font-family="system-ui, sans-serif" font-size="13" font-weight="600" fill="#0f172a">Spectrogram</text>
  <rect x="20" y="30" width="280" height="240" rx="6" fill="white" stroke="#e2e8f0" stroke-width="1.5"/>

  <!-- Simplified spectrogram grid (14 cols x 12 rows) -->
  <g opacity="0.9">
    <!-- Row 0 -->
    <rect x="20" y="30" width="20" height="20" fill="#f0f0f0"/><rect x="40" y="30" width="20" height="20" fill="#ebebeb"/><rect x="60" y="30" width="20" height="20" fill="#f0f0f0"/><rect x="80" y="30" width="20" height="20" fill="#ddd"/><rect x="100" y="30" width="20" height="20" fill="#f0f0f0"/><rect x="120" y="30" width="20" height="20" fill="#ebebeb"/><rect x="140" y="30" width="20" height="20" fill="#f0f0f0"/><rect x="160" y="30" width="20" height="20" fill="#f0f0f0"/><rect x="180" y="30" width="20" height="20" fill="#ddd"/><rect x="200" y="30" width="20" height="20" fill="#f0f0f0"/><rect x="220" y="30" width="20" height="20" fill="#ebebeb"/><rect x="240" y="30" width="20" height="20" fill="#f0f0f0"/><rect x="260" y="30" width="20" height="20" fill="#ddd"/><rect x="280" y="30" width="20" height="20" fill="#f0f0f0"/>
    <!-- Row 1 -->
    <rect x="20" y="50" width="20" height="20" fill="#ebebeb"/><rect x="40" y="50" width="20" height="20" fill="#f59e0b"/><rect x="60" y="50" width="20" height="20" fill="#ddd"/><rect x="80" y="50" width="20" height="20" fill="#ef4444"/><rect x="100" y="50" width="20" height="20" fill="#ddd"/><rect x="120" y="50" width="20" height="20" fill="#f0f0f0"/><rect x="140" y="50" width="20" height="20" fill="#f59e0b"/><rect x="160" y="50" width="20" height="20" fill="#ddd"/><rect x="180" y="50" width="20" height="20" fill="#ef4444"/><rect x="200" y="50" width="20" height="20" fill="#ddd"/><rect x="220" y="50" width="20" height="20" fill="#f0f0f0"/><rect x="240" y="50" width="20" height="20" fill="#f59e0b"/><rect x="260" y="50" width="20" height="20" fill="#ddd"/><rect x="280" y="50" width="20" height="20" fill="#ebebeb"/>
    <!-- Row 2 -->
    <rect x="20" y="70" width="20" height="20" fill="#f0f0f0"/><rect x="40" y="70" width="20" height="20" fill="#ddd"/><rect x="60" y="70" width="20" height="20" fill="#ebebeb"/><rect x="80" y="70" width="20" height="20" fill="#ddd"/><rect x="100" y="70" width="20" height="20" fill="#f0f0f0"/><rect x="120" y="70" width="20" height="20" fill="#ddd"/><rect x="140" y="70" width="20" height="20" fill="#f0f0f0"/><rect x="160" y="70" width="20" height="20" fill="#ddd"/><rect x="180" y="70" width="20" height="20" fill="#ddd"/><rect x="200" y="70" width="20" height="20" fill="#f0f0f0"/><rect x="220" y="70" width="20" height="20" fill="#ddd"/><rect x="240" y="70" width="20" height="20" fill="#ebebeb"/><rect x="260" y="70" width="20" height="20" fill="#f0f0f0"/><rect x="280" y="70" width="20" height="20" fill="#ddd"/>
    <!-- Row 3 -->
    <rect x="20" y="90" width="20" height="20" fill="#ddd"/><rect x="40" y="90" width="20" height="20" fill="#f59e0b"/><rect x="60" y="90" width="20" height="20" fill="#f59e0b"/><rect x="80" y="90" width="20" height="20" fill="#4f46e5"/><rect x="100" y="90" width="20" height="20" fill="#f59e0b"/><rect x="120" y="90" width="20" height="20" fill="#f59e0b"/><rect x="140" y="90" width="20" height="20" fill="#ddd"/><rect x="160" y="90" width="20" height="20" fill="#f59e0b"/><rect x="180" y="90" width="20" height="20" fill="#4f46e5"/><rect x="200" y="90" width="20" height="20" fill="#f59e0b"/><rect x="220" y="90" width="20" height="20" fill="#f59e0b"/><rect x="240" y="90" width="20" height="20" fill="#ddd"/><rect x="260" y="90" width="20" height="20" fill="#f59e0b"/><rect x="280" y="90" width="20" height="20" fill="#ddd"/>
    <!-- Row 4 -->
    <rect x="20" y="110" width="20" height="20" fill="#f0f0f0"/><rect x="40" y="110" width="20" height="20" fill="#ebebeb"/><rect x="60" y="110" width="20" height="20" fill="#f0f0f0"/><rect x="80" y="110" width="20" height="20" fill="#ddd"/><rect x="100" y="110" width="20" height="20" fill="#f0f0f0"/><rect x="120" y="110" width="20" height="20" fill="#f0f0f0"/><rect x="140" y="110" width="20" height="20" fill="#ebebeb"/><rect x="160" y="110" width="20" height="20" fill="#f0f0f0"/><rect x="180" y="110" width="20" height="20" fill="#ddd"/><rect x="200" y="110" width="20" height="20" fill="#f0f0f0"/><rect x="220" y="110" width="20" height="20" fill="#f0f0f0"/><rect x="240" y="110" width="20" height="20" fill="#ebebeb"/><rect x="260" y="110" width="20" height="20" fill="#f0f0f0"/><rect x="280" y="110" width="20" height="20" fill="#f0f0f0"/>
    <!-- Row 5 -->
    <rect x="20" y="130" width="20" height="20" fill="#ddd"/><rect x="40" y="130" width="20" height="20" fill="#f0f0f0"/><rect x="60" y="130" width="20" height="20" fill="#f59e0b"/><rect x="80" y="130" width="20" height="20" fill="#ef4444"/><rect x="100" y="130" width="20" height="20" fill="#f59e0b"/><rect x="120" y="130" width="20" height="20" fill="#ddd"/><rect x="140" y="130" width="20" height="20" fill="#f0f0f0"/><rect x="160" y="130" width="20" height="20" fill="#f59e0b"/><rect x="180" y="130" width="20" height="20" fill="#ef4444"/><rect x="200" y="130" width="20" height="20" fill="#f59e0b"/><rect x="220" y="130" width="20" height="20" fill="#ddd"/><rect x="240" y="130" width="20" height="20" fill="#f0f0f0"/><rect x="260" y="130" width="20" height="20" fill="#f59e0b"/><rect x="280" y="130" width="20" height="20" fill="#ddd"/>
    <!-- Row 6 -->
    <rect x="20" y="150" width="20" height="20" fill="#ebebeb"/><rect x="40" y="150" width="20" height="20" fill="#ddd"/><rect x="60" y="150" width="20" height="20" fill="#ebebeb"/><rect x="80" y="150" width="20" height="20" fill="#f59e0b"/><rect x="100" y="150" width="20" height="20" fill="#ddd"/><rect x="120" y="150" width="20" height="20" fill="#ebebeb"/><rect x="140" y="150" width="20" height="20" fill="#ddd"/><rect x="160" y="150" width="20" height="20" fill="#ebebeb"/><rect x="180" y="150" width="20" height="20" fill="#f59e0b"/><rect x="200" y="150" width="20" height="20" fill="#ddd"/><rect x="220" y="150" width="20" height="20" fill="#ebebeb"/><rect x="240" y="150" width="20" height="20" fill="#ddd"/><rect x="260" y="150" width="20" height="20" fill="#ebebeb"/><rect x="280" y="150" width="20" height="20" fill="#ddd"/>
    <!-- Row 7 -->
    <rect x="20" y="170" width="20" height="20" fill="#f0f0f0"/><rect x="40" y="170" width="20" height="20" fill="#f0f0f0"/><rect x="60" y="170" width="20" height="20" fill="#f0f0f0"/><rect x="80" y="170" width="20" height="20" fill="#ddd"/><rect x="100" y="170" width="20" height="20" fill="#f0f0f0"/><rect x="120" y="170" width="20" height="20" fill="#f0f0f0"/><rect x="140" y="170" width="20" height="20" fill="#f0f0f0"/><rect x="160" y="170" width="20" height="20" fill="#f0f0f0"/><rect x="180" y="170" width="20" height="20" fill="#ddd"/><rect x="200" y="170" width="20" height="20" fill="#f0f0f0"/><rect x="220" y="170" width="20" height="20" fill="#f0f0f0"/><rect x="240" y="170" width="20" height="20" fill="#f0f0f0"/><rect x="260" y="170" width="20" height="20" fill="#f0f0f0"/><rect x="280" y="170" width="20" height="20" fill="#f0f0f0"/>
    <!-- Row 8 -->
    <rect x="20" y="190" width="20" height="20" fill="#f59e0b"/><rect x="40" y="190" width="20" height="20" fill="#ddd"/><rect x="60" y="190" width="20" height="20" fill="#f59e0b"/><rect x="80" y="190" width="20" height="20" fill="#4f46e5"/><rect x="100" y="190" width="20" height="20" fill="#f59e0b"/><rect x="120" y="190" width="20" height="20" fill="#ddd"/><rect x="140" y="190" width="20" height="20" fill="#f59e0b"/><rect x="160" y="190" width="20" height="20" fill="#ddd"/><rect x="180" y="190" width="20" height="20" fill="#4f46e5"/><rect x="200" y="190" width="20" height="20" fill="#f59e0b"/><rect x="220" y="190" width="20" height="20" fill="#ddd"/><rect x="240" y="190" width="20" height="20" fill="#f59e0b"/><rect x="260" y="190" width="20" height="20" fill="#ddd"/><rect x="280" y="190" width="20" height="20" fill="#f59e0b"/>
    <!-- Row 9 -->
    <rect x="20" y="210" width="20" height="20" fill="#f59e0b"/><rect x="40" y="210" width="20" height="20" fill="#f59e0b"/><rect x="60" y="210" width="20" height="20" fill="#ef4444"/><rect x="80" y="210" width="20" height="20" fill="#ef4444"/><rect x="100" y="210" width="20" height="20" fill="#f59e0b"/><rect x="120" y="210" width="20" height="20" fill="#f59e0b"/><rect x="140" y="210" width="20" height="20" fill="#f59e0b"/><rect x="160" y="210" width="20" height="20" fill="#f59e0b"/><rect x="180" y="210" width="20" height="20" fill="#ef4444"/><rect x="200" y="210" width="20" height="20" fill="#f59e0b"/><rect x="220" y="210" width="20" height="20" fill="#f59e0b"/><rect x="240" y="210" width="20" height="20" fill="#f59e0b"/><rect x="260" y="210" width="20" height="20" fill="#f59e0b"/><rect x="280" y="210" width="20" height="20" fill="#f59e0b"/>
    <!-- Row 10 -->
    <rect x="20" y="230" width="20" height="20" fill="#ddd"/><rect x="40" y="230" width="20" height="20" fill="#f59e0b"/><rect x="60" y="230" width="20" height="20" fill="#f59e0b"/><rect x="80" y="230" width="20" height="20" fill="#4f46e5"/><rect x="100" y="230" width="20" height="20" fill="#f59e0b"/><rect x="120" y="230" width="20" height="20" fill="#ddd"/><rect x="140" y="230" width="20" height="20" fill="#ddd"/><rect x="160" y="230" width="20" height="20" fill="#f59e0b"/><rect x="180" y="230" width="20" height="20" fill="#4f46e5"/><rect x="200" y="230" width="20" height="20" fill="#f59e0b"/><rect x="220" y="230" width="20" height="20" fill="#ddd"/><rect x="240" y="230" width="20" height="20" fill="#ddd"/><rect x="260" y="230" width="20" height="20" fill="#f59e0b"/><rect x="280" y="230" width="20" height="20" fill="#ddd"/>
    <!-- Row 11 -->
    <rect x="20" y="250" width="20" height="20" fill="#ddd"/><rect x="40" y="250" width="20" height="20" fill="#ddd"/><rect x="60" y="250" width="20" height="20" fill="#f59e0b"/><rect x="80" y="250" width="20" height="20" fill="#ef4444"/><rect x="100" y="250" width="20" height="20" fill="#ddd"/><rect x="120" y="250" width="20" height="20" fill="#ddd"/><rect x="140" y="250" width="20" height="20" fill="#ddd"/><rect x="160" y="250" width="20" height="20" fill="#ddd"/><rect x="180" y="250" width="20" height="20" fill="#ef4444"/><rect x="200" y="250" width="20" height="20" fill="#ddd"/><rect x="220" y="250" width="20" height="20" fill="#ddd"/><rect x="240" y="250" width="20" height="20" fill="#ddd"/><rect x="260" y="250" width="20" height="20" fill="#ddd"/><rect x="280" y="250" width="20" height="20" fill="#ddd"/>
  </g>

  <!-- Arrow between panels -->
  <line x1="320" y1="150" x2="420" y2="150" stroke="#4f46e5" stroke-width="2.5" marker-end="url(#arrHead2)"/>
  <rect x="335" y="128" width="70" height="20" rx="4" fill="#4f46e5"/>
  <text x="370" y="142" text-anchor="middle" font-family="system-ui, sans-serif" font-size="10" font-weight="700" fill="white">Peak Extract</text>

  <!-- Right panel: Constellation Map -->
  <text x="580" y="22" text-anchor="middle" font-family="system-ui, sans-serif" font-size="13" font-weight="600" fill="#0f172a">Constellation Map</text>
  <rect x="440" y="30" width="280" height="240" rx="6" fill="white" stroke="#e2e8f0" stroke-width="1.5"/>

  <!-- Connection lines (dashed, light purple) -->
  <line x1="470" y1="60" x2="510" y2="100" stroke="#a855f7" stroke-width="1.2" stroke-dasharray="4,3" opacity="0.6"/>
  <line x1="510" y1="100" x2="530" y2="140" stroke="#a855f7" stroke-width="1.2" stroke-dasharray="4,3" opacity="0.6"/>
  <line x1="470" y1="60" x2="490" y2="200" stroke="#a855f7" stroke-width="1.2" stroke-dasharray="4,3" opacity="0.6"/>
  <line x1="530" y1="140" x2="560" y2="60" stroke="#a855f7" stroke-width="1.2" stroke-dasharray="4,3" opacity="0.6"/>
  <line x1="560" y1="60" x2="600" y2="100" stroke="#a855f7" stroke-width="1.2" stroke-dasharray="4,3" opacity="0.6"/>
  <line x1="600" y1="100" x2="620" y2="140" stroke="#a855f7" stroke-width="1.2" stroke-dasharray="4,3" opacity="0.6"/>
  <line x1="490" y1="200" x2="530" y2="220" stroke="#a855f7" stroke-width="1.2" stroke-dasharray="4,3" opacity="0.6"/>
  <line x1="530" y1="220" x2="580" y2="200" stroke="#a855f7" stroke-width="1.2" stroke-dasharray="4,3" opacity="0.6"/>
  <line x1="580" y1="200" x2="620" y2="220" stroke="#a855f7" stroke-width="1.2" stroke-dasharray="4,3" opacity="0.6"/>
  <line x1="620" y1="140" x2="660" y2="60" stroke="#a855f7" stroke-width="1.2" stroke-dasharray="4,3" opacity="0.6"/>
  <line x1="660" y1="60" x2="700" y2="100" stroke="#a855f7" stroke-width="1.2" stroke-dasharray="4,3" opacity="0.6"/>
  <line x1="540" y1="250" x2="580" y2="200" stroke="#a855f7" stroke-width="1.2" stroke-dasharray="4,3" opacity="0.6"/>
  <line x1="660" y1="200" x2="700" y2="250" stroke="#a855f7" stroke-width="1.2" stroke-dasharray="4,3" opacity="0.6"/>
  <line x1="700" y1="100" x2="700" y2="250" stroke="#a855f7" stroke-width="1.2" stroke-dasharray="4,3" opacity="0.6"/>
  <line x1="510" y1="100" x2="490" y2="200" stroke="#a855f7" stroke-width="1.2" stroke-dasharray="4,3" opacity="0.6"/>
  <line x1="460" y1="140" x2="470" y2="60" stroke="#a855f7" stroke-width="1.2" stroke-dasharray="4,3" opacity="0.6"/>
  <line x1="460" y1="140" x2="530" y2="140" stroke="#a855f7" stroke-width="1.2" stroke-dasharray="4,3" opacity="0.6"/>

  <!-- Peak dots -->
  <circle cx="470" cy="60" r="5" fill="#4f46e5"/>
  <circle cx="510" cy="100" r="5" fill="#4f46e5"/>
  <circle cx="530" cy="140" r="5" fill="#4f46e5"/>
  <circle cx="490" cy="200" r="5" fill="#4f46e5"/>
  <circle cx="530" cy="220" r="5" fill="#4f46e5"/>
  <circle cx="540" cy="250" r="5" fill="#4f46e5"/>
  <circle cx="560" cy="60" r="5" fill="#4f46e5"/>
  <circle cx="600" cy="100" r="5" fill="#4f46e5"/>
  <circle cx="620" cy="140" r="5" fill="#4f46e5"/>
  <circle cx="580" cy="200" r="5" fill="#4f46e5"/>
  <circle cx="620" cy="220" r="5" fill="#4f46e5"/>
  <circle cx="660" cy="60" r="5" fill="#4f46e5"/>
  <circle cx="700" cy="100" r="5" fill="#4f46e5"/>
  <circle cx="660" cy="200" r="5" fill="#4f46e5"/>
  <circle cx="700" cy="250" r="5" fill="#4f46e5"/>
  <circle cx="460" cy="140" r="5" fill="#4f46e5"/>
  <circle cx="475" cy="250" r="5" fill="#4f46e5"/>
  <circle cx="550" cy="170" r="5" fill="#4f46e5"/>
  <circle cx="680" cy="140" r="5" fill="#4f46e5"/>
  <circle cx="640" cy="250" r="5" fill="#4f46e5"/>
  <circle cx="455" cy="210" r="5" fill="#4f46e5"/>
  <circle cx="500" cy="160" r="5" fill="#4f46e5"/>
  <circle cx="650" cy="170" r="5" fill="#4f46e5"/>

  <!-- Axis hints -->
  <text x="580" y="282" text-anchor="middle" font-family="system-ui, sans-serif" font-size="10" fill="#94a3b8">Time &#8594;</text>
  <text x="447" y="155" text-anchor="middle" font-family="system-ui, sans-serif" font-size="10" fill="#94a3b8" transform="rotate(-90,447,155)">Freq &#8593;</text>
</svg>