<svg xmlns="http://www.w3.org/2000/svg" viewBox="0 0 1100 450">
  <defs>
    <linearGradient id="bgC" x1="0" y1="0" x2="0" y2="1">
      <stop offset="0%" stop-color="#0f172a"/>
      <stop offset="100%" stop-color="#1e293b"/>
    </linearGradient>
    <linearGradient id="spectroGrad" x1="0" y1="1" x2="0" y2="0">
      <stop offset="0%" stop-color="#1e293b"/>
      <stop offset="40%" stop-color="#4f46e5"/>
      <stop offset="70%" stop-color="#a855f7"/>
      <stop offset="100%" stop-color="#f59e0b"/>
    </linearGradient>
    <filter id="shadowC">
      <feDropShadow dx="2" dy="2" stdDeviation="3" flood-color="#000" flood-opacity="0.5"/>
    </filter>
    <filter id="dotGlow">
      <feGaussianBlur stdDeviation="3" result="blur"/>
      <feFlood flood-color="#f59e0b" flood-opacity="0.7" result="color"/>
      <feComposite in="color" in2="blur" operator="in" result="glow"/>
      <feMerge><feMergeNode in="glow"/><feMergeNode in="SourceGraphic"/></feMerge>
    </filter>
    <marker id="arrowC" viewBox="0 0 10 10" refX="10" refY="5" markerWidth="10" markerHeight="10" orient="auto-start-reverse">
      <path d="M 0 0 L 10 5 L 0 10 z" fill="#818cf8"/>
    </marker>
    <pattern id="dotsC" x="0" y="0" width="20" height="20" patternUnits="userSpaceOnUse">
      <circle cx="10" cy="10" r="0.8" fill="#334155" opacity="0.5"/>
    </pattern>
  </defs>

  <rect width="1100" height="450" fill="url(#bgC)"/>
  <rect width="1100" height="450" fill="url(#dotsC)"/>

  <!-- Title -->
  <text x="550" y="30" text-anchor="middle" font-family="system-ui, sans-serif" font-size="20" font-weight="bold" fill="#e2e8f0">Spectrogram &#x2192; Constellation Map (Peak Extraction)</text>

  <!-- === LEFT PANEL: Dense Spectrogram === -->
  <rect x="20" y="45" width="440" height="370" rx="12" fill="#0f172a" stroke="#4f46e5" stroke-width="2" filter="url(#shadowC)"/>
  <text x="240" y="72" text-anchor="middle" font-family="system-ui, sans-serif" font-size="16" font-weight="bold" fill="#818cf8">Dense Spectrogram</text>
  <text x="240" y="90" text-anchor="middle" font-family="system-ui, sans-serif" font-size="12" fill="#64748b">All frequency data (noisy)</text>

  <!-- Simplified dense spectrogram grid (15x12) -->
  <g opacity="0.9">
    <!-- Row by row, creating a busy colorful pattern -->
    <!-- Row 1 -->
    <rect x="40" y="100" width="26" height="20" fill="#2d3a52"/><rect x="68" y="100" width="26" height="20" fill="#3b3f8a"/>
    <rect x="96" y="100" width="26" height="20" fill="#1e293b"/><rect x="124" y="100" width="26" height="20" fill="#2d3a52"/>
    <rect x="152" y="100" width="26" height="20" fill="#4f46e5"/><rect x="180" y="100" width="26" height="20" fill="#3b3f8a"/>
    <rect x="208" y="100" width="26" height="20" fill="#2d3a52"/><rect x="236" y="100" width="26" height="20" fill="#1e293b"/>
    <rect x="264" y="100" width="26" height="20" fill="#3b3f8a"/><rect x="292" y="100" width="26" height="20" fill="#2d3a52"/>
    <rect x="320" y="100" width="26" height="20" fill="#1e293b"/><rect x="348" y="100" width="26" height="20" fill="#3b3f8a"/>
    <rect x="376" y="100" width="26" height="20" fill="#2d3a52"/><rect x="404" y="100" width="26" height="20" fill="#1e293b"/>
    <rect x="432" y="100" width="26" height="20" fill="#2d3a52"/>
    <!-- Row 2 -->
    <rect x="40" y="122" width="26" height="20" fill="#3b3f8a"/><rect x="68" y="122" width="26" height="20" fill="#6366f1"/>
    <rect x="96" y="122" width="26" height="20" fill="#4f46e5"/><rect x="124" y="122" width="26" height="20" fill="#3b3f8a"/>
    <rect x="152" y="122" width="26" height="20" fill="#818cf8"/><rect x="180" y="122" width="26" height="20" fill="#6366f1"/>
    <rect x="208" y="122" width="26" height="20" fill="#4f46e5"/><rect x="236" y="122" width="26" height="20" fill="#3b3f8a"/>
    <rect x="264" y="122" width="26" height="20" fill="#6366f1"/><rect x="292" y="122" width="26" height="20" fill="#4f46e5"/>
    <rect x="320" y="122" width="26" height="20" fill="#3b3f8a"/><rect x="348" y="122" width="26" height="20" fill="#6366f1"/>
    <rect x="376" y="122" width="26" height="20" fill="#4f46e5"/><rect x="404" y="122" width="26" height="20" fill="#3b3f8a"/>
    <rect x="432" y="122" width="26" height="20" fill="#4f46e5"/>
    <!-- Row 3 -->
    <rect x="40" y="144" width="26" height="20" fill="#4f46e5"/><rect x="68" y="144" width="26" height="20" fill="#a855f7"/>
    <rect x="96" y="144" width="26" height="20" fill="#6366f1"/><rect x="124" y="144" width="26" height="20" fill="#818cf8"/>
    <rect x="152" y="144" width="26" height="20" fill="#c084fc"/><rect x="180" y="144" width="26" height="20" fill="#a855f7"/>
    <rect x="208" y="144" width="26" height="20" fill="#6366f1"/><rect x="236" y="144" width="26" height="20" fill="#4f46e5"/>
    <rect x="264" y="144" width="26" height="20" fill="#a855f7"/><rect x="292" y="144" width="26" height="20" fill="#818cf8"/>
    <rect x="320" y="144" width="26" height="20" fill="#6366f1"/><rect x="348" y="144" width="26" height="20" fill="#a855f7"/>
    <rect x="376" y="144" width="26" height="20" fill="#6366f1"/><rect x="404" y="144" width="26" height="20" fill="#4f46e5"/>
    <rect x="432" y="144" width="26" height="20" fill="#818cf8"/>
    <!-- Row 4 -->
    <rect x="40" y="166" width="26" height="20" fill="#2d3a52"/><rect x="68" y="166" width="26" height="20" fill="#4f46e5"/>
    <rect x="96" y="166" width="26" height="20" fill="#3b3f8a"/><rect x="124" y="166" width="26" height="20" fill="#2d3a52"/>
    <rect x="152" y="166" width="26" height="20" fill="#4f46e5"/><rect x="180" y="166" width="26" height="20" fill="#3b3f8a"/>
    <rect x="208" y="166" width="26" height="20" fill="#2d3a52"/><rect x="236" y="166" width="26" height="20" fill="#1e293b"/>
    <rect x="264" y="166" width="26" height="20" fill="#4f46e5"/><rect x="292" y="166" width="26" height="20" fill="#3b3f8a"/>
    <rect x="320" y="166" width="26" height="20" fill="#2d3a52"/><rect x="348" y="166" width="26" height="20" fill="#4f46e5"/>
    <rect x="376" y="166" width="26" height="20" fill="#3b3f8a"/><rect x="404" y="166" width="26" height="20" fill="#2d3a52"/>
    <rect x="432" y="166" width="26" height="20" fill="#3b3f8a"/>
    <!-- Row 5 -->
    <rect x="40" y="188" width="26" height="20" fill="#6366f1"/><rect x="68" y="188" width="26" height="20" fill="#f59e0b"/>
    <rect x="96" y="188" width="26" height="20" fill="#a855f7"/><rect x="124" y="188" width="26" height="20" fill="#6366f1"/>
    <rect x="152" y="188" width="26" height="20" fill="#fef3c7"/><rect x="180" y="188" width="26" height="20" fill="#f59e0b"/>
    <rect x="208" y="188" width="26" height="20" fill="#a855f7"/><rect x="236" y="188" width="26" height="20" fill="#6366f1"/>
    <rect x="264" y="188" width="26" height="20" fill="#f59e0b"/><rect x="292" y="188" width="26" height="20" fill="#a855f7"/>
    <rect x="320" y="188" width="26" height="20" fill="#818cf8"/><rect x="348" y="188" width="26" height="20" fill="#f59e0b"/>
    <rect x="376" y="188" width="26" height="20" fill="#a855f7"/><rect x="404" y="188" width="26" height="20" fill="#6366f1"/>
    <rect x="432" y="188" width="26" height="20" fill="#c084fc"/>
    <!-- Row 6 -->
    <rect x="40" y="210" width="26" height="20" fill="#3b3f8a"/><rect x="68" y="210" width="26" height="20" fill="#6366f1"/>
    <rect x="96" y="210" width="26" height="20" fill="#4f46e5"/><rect x="124" y="210" width="26" height="20" fill="#3b3f8a"/>
    <rect x="152" y="210" width="26" height="20" fill="#818cf8"/><rect x="180" y="210" width="26" height="20" fill="#6366f1"/>
    <rect x="208" y="210" width="26" height="20" fill="#4f46e5"/><rect x="236" y="210" width="26" height="20" fill="#3b3f8a"/>
    <rect x="264" y="210" width="26" height="20" fill="#6366f1"/><rect x="292" y="210" width="26" height="20" fill="#4f46e5"/>
    <rect x="320" y="210" width="26" height="20" fill="#3b3f8a"/><rect x="348" y="210" width="26" height="20" fill="#6366f1"/>
    <rect x="376" y="210" width="26" height="20" fill="#4f46e5"/><rect x="404" y="210" width="26" height="20" fill="#3b3f8a"/>
    <rect x="432" y="210" width="26" height="20" fill="#4f46e5"/>
    <!-- Row 7 -->
    <rect x="40" y="232" width="26" height="20" fill="#4f46e5"/><rect x="68" y="232" width="26" height="20" fill="#818cf8"/>
    <rect x="96" y="232" width="26" height="20" fill="#c084fc"/><rect x="124" y="232" width="26" height="20" fill="#818cf8"/>
    <rect x="152" y="232" width="26" height="20" fill="#f59e0b"/><rect x="180" y="232" width="26" height="20" fill="#c084fc"/>
    <rect x="208" y="232" width="26" height="20" fill="#818cf8"/><rect x="236" y="232" width="26" height="20" fill="#4f46e5"/>
    <rect x="264" y="232" width="26" height="20" fill="#c084fc"/><rect x="292" y="232" width="26" height="20" fill="#818cf8"/>
    <rect x="320" y="232" width="26" height="20" fill="#4f46e5"/><rect x="348" y="232" width="26" height="20" fill="#c084fc"/>
    <rect x="376" y="232" width="26" height="20" fill="#818cf8"/><rect x="404" y="232" width="26" height="20" fill="#6366f1"/>
    <rect x="432" y="232" width="26" height="20" fill="#a855f7"/>
    <!-- Row 8-12 (more rows to fill space) -->
    <rect x="40" y="254" width="26" height="20" fill="#2d3a52"/><rect x="68" y="254" width="26" height="20" fill="#3b3f8a"/>
    <rect x="96" y="254" width="26" height="20" fill="#4f46e5"/><rect x="124" y="254" width="26" height="20" fill="#3b3f8a"/>
    <rect x="152" y="254" width="26" height="20" fill="#6366f1"/><rect x="180" y="254" width="26" height="20" fill="#4f46e5"/>
    <rect x="208" y="254" width="26" height="20" fill="#3b3f8a"/><rect x="236" y="254" width="26" height="20" fill="#2d3a52"/>
    <rect x="264" y="254" width="26" height="20" fill="#4f46e5"/><rect x="292" y="254" width="26" height="20" fill="#3b3f8a"/>
    <rect x="320" y="254" width="26" height="20" fill="#2d3a52"/><rect x="348" y="254" width="26" height="20" fill="#4f46e5"/>
    <rect x="376" y="254" width="26" height="20" fill="#3b3f8a"/><rect x="404" y="254" width="26" height="20" fill="#2d3a52"/>
    <rect x="432" y="254" width="26" height="20" fill="#3b3f8a"/>
    <!-- Row 9 -->
    <rect x="40" y="276" width="26" height="20" fill="#3b3f8a"/><rect x="68" y="276" width="26" height="20" fill="#6366f1"/>
    <rect x="96" y="276" width="26" height="20" fill="#818cf8"/><rect x="124" y="276" width="26" height="20" fill="#6366f1"/>
    <rect x="152" y="276" width="26" height="20" fill="#a855f7"/><rect x="180" y="276" width="26" height="20" fill="#818cf8"/>
    <rect x="208" y="276" width="26" height="20" fill="#6366f1"/><rect x="236" y="276" width="26" height="20" fill="#3b3f8a"/>
    <rect x="264" y="276" width="26" height="20" fill="#818cf8"/><rect x="292" y="276" width="26" height="20" fill="#6366f1"/>
    <rect x="320" y="276" width="26" height="20" fill="#4f46e5"/><rect x="348" y="276" width="26" height="20" fill="#818cf8"/>
    <rect x="376" y="276" width="26" height="20" fill="#6366f1"/><rect x="404" y="276" width="26" height="20" fill="#3b3f8a"/>
    <rect x="432" y="276" width="26" height="20" fill="#6366f1"/>
    <!-- Row 10 -->
    <rect x="40" y="298" width="26" height="20" fill="#4f46e5"/><rect x="68" y="298" width="26" height="20" fill="#a855f7"/>
    <rect x="96" y="298" width="26" height="20" fill="#f59e0b"/><rect x="124" y="298" width="26" height="20" fill="#a855f7"/>
    <rect x="152" y="298" width="26" height="20" fill="#c084fc"/><rect x="180" y="298" width="26" height="20" fill="#f59e0b"/>
    <rect x="208" y="298" width="26" height="20" fill="#a855f7"/><rect x="236" y="298" width="26" height="20" fill="#6366f1"/>
    <rect x="264" y="298" width="26" height="20" fill="#f59e0b"/><rect x="292" y="298" width="26" height="20" fill="#a855f7"/>
    <rect x="320" y="298" width="26" height="20" fill="#818cf8"/><rect x="348" y="298" width="26" height="20" fill="#f59e0b"/>
    <rect x="376" y="298" width="26" height="20" fill="#a855f7"/><rect x="404" y="298" width="26" height="20" fill="#6366f1"/>
    <rect x="432" y="298" width="26" height="20" fill="#c084fc"/>
    <!-- Row 11 -->
    <rect x="40" y="320" width="26" height="20" fill="#2d3a52"/><rect x="68" y="320" width="26" height="20" fill="#4f46e5"/>
    <rect x="96" y="320" width="26" height="20" fill="#6366f1"/><rect x="124" y="320" width="26" height="20" fill="#4f46e5"/>
    <rect x="152" y="320" width="26" height="20" fill="#818cf8"/><rect x="180" y="320" width="26" height="20" fill="#6366f1"/>
    <rect x="208" y="320" width="26" height="20" fill="#4f46e5"/><rect x="236" y="320" width="26" height="20" fill="#2d3a52"/>
    <rect x="264" y="320" width="26" height="20" fill="#6366f1"/><rect x="292" y="320" width="26" height="20" fill="#4f46e5"/>
    <rect x="320" y="320" width="26" height="20" fill="#3b3f8a"/><rect x="348" y="320" width="26" height="20" fill="#6366f1"/>
    <rect x="376" y="320" width="26" height="20" fill="#4f46e5"/><rect x="404" y="320" width="26" height="20" fill="#2d3a52"/>
    <rect x="432" y="320" width="26" height="20" fill="#4f46e5"/>
    <!-- Row 12 -->
    <rect x="40" y="342" width="26" height="20" fill="#3b3f8a"/><rect x="68" y="342" width="26" height="20" fill="#818cf8"/>
    <rect x="96" y="342" width="26" height="20" fill="#a855f7"/><rect x="124" y="342" width="26" height="20" fill="#818cf8"/>
    <rect x="152" y="342" width="26" height="20" fill="#c084fc"/><rect x="180" y="342" width="26" height="20" fill="#a855f7"/>
    <rect x="208" y="342" width="26" height="20" fill="#818cf8"/><rect x="236" y="342" width="26" height="20" fill="#4f46e5"/>
    <rect x="264" y="342" width="26" height="20" fill="#a855f7"/><rect x="292" y="342" width="26" height="20" fill="#818cf8"/>
    <rect x="320" y="342" width="26" height="20" fill="#6366f1"/><rect x="348" y="342" width="26" height="20" fill="#a855f7"/>
    <rect x="376" y="342" width="26" height="20" fill="#818cf8"/><rect x="404" y="342" width="26" height="20" fill="#4f46e5"/>
    <rect x="432" y="342" width="26" height="20" fill="#818cf8"/>
    <!-- Row 13 -->
    <rect x="40" y="364" width="26" height="20" fill="#1e293b"/><rect x="68" y="364" width="26" height="20" fill="#2d3a52"/>
    <rect x="96" y="364" width="26" height="20" fill="#3b3f8a"/><rect x="124" y="364" width="26" height="20" fill="#2d3a52"/>
    <rect x="152" y="364" width="26" height="20" fill="#4f46e5"/><rect x="180" y="364" width="26" height="20" fill="#3b3f8a"/>
    <rect x="208" y="364" width="26" height="20" fill="#2d3a52"/><rect x="236" y="364" width="26" height="20" fill="#1e293b"/>
    <rect x="264" y="364" width="26" height="20" fill="#3b3f8a"/><rect x="292" y="364" width="26" height="20" fill="#2d3a52"/>
    <rect x="320" y="364" width="26" height="20" fill="#1e293b"/><rect x="348" y="364" width="26" height="20" fill="#3b3f8a"/>
    <rect x="376" y="364" width="26" height="20" fill="#2d3a52"/><rect x="404" y="364" width="26" height="20" fill="#1e293b"/>
    <rect x="432" y="364" width="26" height="20" fill="#2d3a52"/>
    <!-- Row 14 -->
    <rect x="40" y="386" width="26" height="20" fill="#2d3a52"/><rect x="68" y="386" width="26" height="20" fill="#4f46e5"/>
    <rect x="96" y="386" width="26" height="20" fill="#6366f1"/><rect x="124" y="386" width="26" height="20" fill="#4f46e5"/>
    <rect x="152" y="386" width="26" height="20" fill="#818cf8"/><rect x="180" y="386" width="26" height="20" fill="#6366f1"/>
    <rect x="208" y="386" width="26" height="20" fill="#4f46e5"/><rect x="236" y="386" width="26" height="20" fill="#2d3a52"/>
    <rect x="264" y="386" width="26" height="20" fill="#6366f1"/><rect x="292" y="386" width="26" height="20" fill="#4f46e5"/>
    <rect x="320" y="386" width="26" height="20" fill="#3b3f8a"/><rect x="348" y="386" width="26" height="20" fill="#6366f1"/>
    <rect x="376" y="386" width="26" height="20" fill="#4f46e5"/><rect x="404" y="386" width="26" height="20" fill="#2d3a52"/>
    <rect x="432" y="386" width="26" height="20" fill="#4f46e5"/>
  </g>

  <!-- Axes labels for left panel -->
  <text x="240" y="420" text-anchor="middle" font-family="system-ui, sans-serif" font-size="12" fill="#64748b">Time &#x2192;</text>
  <text x="30" y="250" text-anchor="middle" font-family="system-ui, sans-serif" font-size="12" fill="#64748b" transform="rotate(-90,30,250)">Freq &#x2191;</text>

  <!-- === CENTER: Arrow === -->
  <line x1="480" y1="220" x2="600" y2="220" stroke="#818cf8" stroke-width="4" marker-end="url(#arrowC)"/>
  <text x="540" y="200" text-anchor="middle" font-family="system-ui, sans-serif" font-size="14" font-weight="bold" fill="#e2e8f0">Keep Only</text>
  <text x="540" y="218" text-anchor="middle" font-family="system-ui, sans-serif" font-size="14" font-weight="bold" fill="#e2e8f0">Peaks</text>
  <text x="540" y="250" text-anchor="middle" font-family="system-ui, sans-serif" font-size="12" fill="#64748b">Local maxima</text>
  <text x="540" y="266" text-anchor="middle" font-family="system-ui, sans-serif" font-size="12" fill="#64748b">in T-F space</text>

  <!-- === RIGHT PANEL: Constellation Map === -->
  <rect x="620" y="45" width="460" height="370" rx="12" fill="#0a0f1e" stroke="#22c55e" stroke-width="2" filter="url(#shadowC)"/>
  <text x="850" y="72" text-anchor="middle" font-family="system-ui, sans-serif" font-size="16" font-weight="bold" fill="#22c55e">Constellation Map</text>
  <text x="850" y="90" text-anchor="middle" font-family="system-ui, sans-serif" font-size="12" fill="#64748b">Sparse peaks only (fingerprint)</text>

  <!-- Subtle grid -->
  <g stroke="#1e293b" stroke-width="0.5" opacity="0.5">
    <line x1="640" y1="100" x2="640" y2="400"/>
    <line x1="700" y1="100" x2="700" y2="400"/>
    <line x1="760" y1="100" x2="760" y2="400"/>
    <line x1="820" y1="100" x2="820" y2="400"/>
    <line x1="880" y1="100" x2="880" y2="400"/>
    <line x1="940" y1="100" x2="940" y2="400"/>
    <line x1="1000" y1="100" x2="1000" y2="400"/>
    <line x1="1060" y1="100" x2="1060" y2="400"/>
    <line x1="640" y1="130" x2="1060" y2="130"/>
    <line x1="640" y1="175" x2="1060" y2="175"/>
    <line x1="640" y1="220" x2="1060" y2="220"/>
    <line x1="640" y1="265" x2="1060" y2="265"/>
    <line x1="640" y1="310" x2="1060" y2="310"/>
    <line x1="640" y1="355" x2="1060" y2="355"/>
  </g>

  <!-- Constellation dots (peaks) with glow -->
  <circle cx="665" cy="190" r="5" fill="#f59e0b" filter="url(#dotGlow)"/>
  <circle cx="690" cy="310" r="5" fill="#f59e0b" filter="url(#dotGlow)"/>
  <circle cx="720" cy="140" r="5" fill="#f59e0b" filter="url(#dotGlow)"/>
  <circle cx="735" cy="250" r="5" fill="#f59e0b" filter="url(#dotGlow)"/>
  <circle cx="770" cy="170" r="5" fill="#f59e0b" filter="url(#dotGlow)"/>
  <circle cx="785" cy="350" r="5" fill="#f59e0b" filter="url(#dotGlow)"/>
  <circle cx="810" cy="120" r="5" fill="#f59e0b" filter="url(#dotGlow)"/>
  <circle cx="825" cy="280" r="5" fill="#f59e0b" filter="url(#dotGlow)"/>
  <circle cx="855" cy="200" r="5" fill="#f59e0b" filter="url(#dotGlow)"/>
  <circle cx="870" cy="340" r="5" fill="#f59e0b" filter="url(#dotGlow)"/>
  <circle cx="895" cy="150" r="5" fill="#f59e0b" filter="url(#dotGlow)"/>
  <circle cx="910" cy="290" r="5" fill="#f59e0b" filter="url(#dotGlow)"/>
  <circle cx="935" cy="180" r="5" fill="#f59e0b" filter="url(#dotGlow)"/>
  <circle cx="950" cy="320" r="5" fill="#f59e0b" filter="url(#dotGlow)"/>
  <circle cx="975" cy="130" r="5" fill="#f59e0b" filter="url(#dotGlow)"/>
  <circle cx="990" cy="260" r="5" fill="#f59e0b" filter="url(#dotGlow)"/>
  <circle cx="1010" cy="370" r="5" fill="#f59e0b" filter="url(#dotGlow)"/>
  <circle cx="1025" cy="160" r="5" fill="#f59e0b" filter="url(#dotGlow)"/>
  <circle cx="1040" cy="300" r="5" fill="#f59e0b" filter="url(#dotGlow)"/>
  <circle cx="680" cy="240" r="5" fill="#f59e0b" filter="url(#dotGlow)"/>
  <circle cx="750" cy="360" r="5" fill="#f59e0b" filter="url(#dotGlow)"/>
  <circle cx="840" cy="155" r="5" fill="#f59e0b" filter="url(#dotGlow)"/>
  <circle cx="920" cy="230" r="5" fill="#f59e0b" filter="url(#dotGlow)"/>
  <circle cx="960" cy="375" r="5" fill="#f59e0b" filter="url(#dotGlow)"/>
  <circle cx="1050" cy="210" r="5" fill="#f59e0b" filter="url(#dotGlow)"/>
  <circle cx="700" cy="380" r="5" fill="#f59e0b" filter="url(#dotGlow)"/>
  <circle cx="860" cy="110" r="5" fill="#f59e0b" filter="url(#dotGlow)"/>
  <circle cx="995" cy="350" r="5" fill="#f59e0b" filter="url(#dotGlow)"/>
  <circle cx="930" cy="380" r="5" fill="#f59e0b" filter="url(#dotGlow)"/>
  <circle cx="1055" cy="140" r="5" fill="#f59e0b" filter="url(#dotGlow)"/>

  <!-- Hash pair lines (dashed) connecting nearby peaks -->
  <line x1="665" y1="190" x2="720" y2="140" stroke="#22c55e" stroke-width="1.5" stroke-dasharray="4,3" opacity="0.7"/>
  <text x="688" y="158" font-family="system-ui, sans-serif" font-size="9" fill="#22c55e" opacity="0.8">hash</text>

  <line x1="690" y1="310" x2="735" y2="250" stroke="#22c55e" stroke-width="1.5" stroke-dasharray="4,3" opacity="0.7"/>
  <text x="708" y="275" font-family="system-ui, sans-serif" font-size="9" fill="#22c55e" opacity="0.8">hash</text>

  <line x1="770" y1="170" x2="810" y2="120" stroke="#22c55e" stroke-width="1.5" stroke-dasharray="4,3" opacity="0.7"/>

  <line x1="825" y1="280" x2="870" y2="340" stroke="#22c55e" stroke-width="1.5" stroke-dasharray="4,3" opacity="0.7"/>
  <text x="843" y="318" font-family="system-ui, sans-serif" font-size="9" fill="#22c55e" opacity="0.8">hash</text>

  <line x1="855" y1="200" x2="895" y2="150" stroke="#22c55e" stroke-width="1.5" stroke-dasharray="4,3" opacity="0.7"/>

  <line x1="910" y1="290" x2="950" y2="320" stroke="#22c55e" stroke-width="1.5" stroke-dasharray="4,3" opacity="0.7"/>
  <text x="926" y="312" font-family="system-ui, sans-serif" font-size="9" fill="#22c55e" opacity="0.8">hash</text>

  <line x1="935" y1="180" x2="975" y2="130" stroke="#22c55e" stroke-width="1.5" stroke-dasharray="4,3" opacity="0.7"/>
  <text x="950" y="148" font-family="system-ui, sans-serif" font-size="9" fill="#22c55e" opacity="0.8">hash</text>

  <line x1="990" y1="260" x2="1025" y2="160" stroke="#22c55e" stroke-width="1.5" stroke-dasharray="4,3" opacity="0.7"/>

  <line x1="1040" y1="300" x2="1050" y2="210" stroke="#22c55e" stroke-width="1.5" stroke-dasharray="4,3" opacity="0.7"/>
  <text x="1055" y="260" font-family="system-ui, sans-serif" font-size="9" fill="#22c55e" opacity="0.8">hash</text>

  <line x1="680" y1="240" x2="735" y2="250" stroke="#22c55e" stroke-width="1.5" stroke-dasharray="4,3" opacity="0.7"/>

  <line x1="840" y1="155" x2="860" y2="110" stroke="#22c55e" stroke-width="1.5" stroke-dasharray="4,3" opacity="0.7"/>
  <text x="856" y="126" font-family="system-ui, sans-serif" font-size="9" fill="#22c55e" opacity="0.8">hash</text>

  <!-- Axes labels for right panel -->
  <text x="850" y="420" text-anchor="middle" font-family="system-ui, sans-serif" font-size="12" fill="#64748b">Time &#x2192;</text>

  <!-- Bottom annotation -->
  <text x="550" y="440" text-anchor="middle" font-family="system-ui, sans-serif" font-size="13" fill="#94a3b8">Hash = (f1, f2, &#x394;t) &#x2192; compact fingerprint for database lookup</text>
</svg>