<svg xmlns="http://www.w3.org/2000/svg" viewBox="0 0 700 300" width="700" height="300">
  <defs>
    <linearGradient id="colorBar" x1="0" y1="1" x2="0" y2="0">
      <stop offset="0%" stop-color="#f0f0f0"/>
      <stop offset="35%" stop-color="#ddd"/>
      <stop offset="60%" stop-color="#f59e0b"/>
      <stop offset="85%" stop-color="#ef4444"/>
      <stop offset="100%" stop-color="#4f46e5"/>
    </linearGradient>
  </defs>

  <rect width="700" height="300" fill="#f8f9fa" rx="12"/>

  <!-- Grid area -->
  <rect x="70" y="25" width="540" height="225" rx="4" fill="white" stroke="#e2e8f0" stroke-width="1"/>

  <!-- Spectrogram cells: 20 cols x 15 rows -->
  <g id="cells">
    <!-- Row 0 (top = high freq) -->
    <rect x="70" y="25" width="27" height="15" fill="#f0f0f0"/><rect x="97" y="25" width="27" height="15" fill="#ebebeb"/><rect x="124" y="25" width="27" height="15" fill="#f0f0f0"/><rect x="151" y="25" width="27" height="15" fill="#ddd"/><rect x="178" y="25" width="27" height="15" fill="#f0f0f0"/><rect x="205" y="25" width="27" height="15" fill="#f0f0f0"/><rect x="232" y="25" width="27" height="15" fill="#ebebeb"/><rect x="259" y="25" width="27" height="15" fill="#f0f0f0"/><rect x="286" y="25" width="27" height="15" fill="#f0f0f0"/><rect x="313" y="25" width="27" height="15" fill="#ddd"/><rect x="340" y="25" width="27" height="15" fill="#f0f0f0"/><rect x="367" y="25" width="27" height="15" fill="#f0f0f0"/><rect x="394" y="25" width="27" height="15" fill="#ebebeb"/><rect x="421" y="25" width="27" height="15" fill="#f0f0f0"/><rect x="448" y="25" width="27" height="15" fill="#f0f0f0"/><rect x="475" y="25" width="27" height="15" fill="#ddd"/><rect x="502" y="25" width="27" height="15" fill="#f0f0f0"/><rect x="529" y="25" width="27" height="15" fill="#f0f0f0"/><rect x="556" y="25" width="27" height="15" fill="#ebebeb"/><rect x="583" y="25" width="27" height="15" fill="#f0f0f0"/>
    <!-- Row 1 -->
    <rect x="70" y="40" width="27" height="15" fill="#ebebeb"/><rect x="97" y="40" width="27" height="15" fill="#f0f0f0"/><rect x="124" y="40" width="27" height="15" fill="#ddd"/><rect x="151" y="40" width="27" height="15" fill="#f59e0b"/><rect x="178" y="40" width="27" height="15" fill="#ebebeb"/><rect x="205" y="40" width="27" height="15" fill="#f0f0f0"/><rect x="232" y="40" width="27" height="15" fill="#f0f0f0"/><rect x="259" y="40" width="27" height="15" fill="#ddd"/><rect x="286" y="40" width="27" height="15" fill="#f0f0f0"/><rect x="313" y="40" width="27" height="15" fill="#f59e0b"/><rect x="340" y="40" width="27" height="15" fill="#ebebeb"/><rect x="367" y="40" width="27" height="15" fill="#f0f0f0"/><rect x="394" y="40" width="27" height="15" fill="#f0f0f0"/><rect x="421" y="40" width="27" height="15" fill="#ddd"/><rect x="448" y="40" width="27" height="15" fill="#f59e0b"/><rect x="475" y="40" width="27" height="15" fill="#ebebeb"/><rect x="502" y="40" width="27" height="15" fill="#f0f0f0"/><rect x="529" y="40" width="27" height="15" fill="#ddd"/><rect x="556" y="40" width="27" height="15" fill="#f0f0f0"/><rect x="583" y="40" width="27" height="15" fill="#ebebeb"/>
    <!-- Row 2 -->
    <rect x="70" y="55" width="27" height="15" fill="#f0f0f0"/><rect x="97" y="55" width="27" height="15" fill="#ddd"/><rect x="124" y="55" width="27" height="15" fill="#f59e0b"/><rect x="151" y="55" width="27" height="15" fill="#ef4444"/><rect x="178" y="55" width="27" height="15" fill="#f59e0b"/><rect x="205" y="55" width="27" height="15" fill="#ddd"/><rect x="232" y="55" width="27" height="15" fill="#f0f0f0"/><rect x="259" y="55" width="27" height="15" fill="#f59e0b"/><rect x="286" y="55" width="27" height="15" fill="#ddd"/><rect x="313" y="55" width="27" height="15" fill="#ef4444"/><rect x="340" y="55" width="27" height="15" fill="#f59e0b"/><rect x="367" y="55" width="27" height="15" fill="#ddd"/><rect x="394" y="55" width="27" height="15" fill="#f0f0f0"/><rect x="421" y="55" width="27" height="15" fill="#f59e0b"/><rect x="448" y="55" width="27" height="15" fill="#ef4444"/><rect x="475" y="55" width="27" height="15" fill="#f59e0b"/><rect x="502" y="55" width="27" height="15" fill="#ddd"/><rect x="529" y="55" width="27" height="15" fill="#f59e0b"/><rect x="556" y="55" width="27" height="15" fill="#ddd"/><rect x="583" y="55" width="27" height="15" fill="#f0f0f0"/>
    <!-- Row 3 -->
    <rect x="70" y="70" width="27" height="15" fill="#ddd"/><rect x="97" y="70" width="27" height="15" fill="#f0f0f0"/><rect x="124" y="70" width="27" height="15" fill="#ddd"/><rect x="151" y="70" width="27" height="15" fill="#f59e0b"/><rect x="178" y="70" width="27" height="15" fill="#ddd"/><rect x="205" y="70" width="27" height="15" fill="#f0f0f0"/><rect x="232" y="70" width="27" height="15" fill="#ebebeb"/><rect x="259" y="70" width="27" height="15" fill="#ddd"/><rect x="286" y="70" width="27" height="15" fill="#f0f0f0"/><rect x="313" y="70" width="27" height="15" fill="#f59e0b"/><rect x="340" y="70" width="27" height="15" fill="#ddd"/><rect x="367" y="70" width="27" height="15" fill="#f0f0f0"/><rect x="394" y="70" width="27" height="15" fill="#ebebeb"/><rect x="421" y="70" width="27" height="15" fill="#ddd"/><rect x="448" y="70" width="27" height="15" fill="#f59e0b"/><rect x="475" y="70" width="27" height="15" fill="#ddd"/><rect x="502" y="70" width="27" height="15" fill="#f0f0f0"/><rect x="529" y="70" width="27" height="15" fill="#ddd"/><rect x="556" y="70" width="27" height="15" fill="#f0f0f0"/><rect x="583" y="70" width="27" height="15" fill="#ebebeb"/>
    <!-- Row 4 -->
    <rect x="70" y="85" width="27" height="15" fill="#f0f0f0"/><rect x="97" y="85" width="27" height="15" fill="#ebebeb"/><rect x="124" y="85" width="27" height="15" fill="#f0f0f0"/><rect x="151" y="85" width="27" height="15" fill="#ddd"/><rect x="178" y="85" width="27" height="15" fill="#f0f0f0"/><rect x="205" y="85" width="27" height="15" fill="#ebebeb"/><rect x="232" y="85" width="27" height="15" fill="#f0f0f0"/><rect x="259" y="85" width="27" height="15" fill="#f0f0f0"/><rect x="286" y="85" width="27" height="15" fill="#ebebeb"/><rect x="313" y="85" width="27" height="15" fill="#ddd"/><rect x="340" y="85" width="27" height="15" fill="#f0f0f0"/><rect x="367" y="85" width="27" height="15" fill="#ebebeb"/><rect x="394" y="85" width="27" height="15" fill="#f0f0f0"/><rect x="421" y="85" width="27" height="15" fill="#f0f0f0"/><rect x="448" y="85" width="27" height="15" fill="#ddd"/><rect x="475" y="85" width="27" height="15" fill="#f0f0f0"/><rect x="502" y="85" width="27" height="15" fill="#ebebeb"/><rect x="529" y="85" width="27" height="15" fill="#f0f0f0"/><rect x="556" y="85" width="27" height="15" fill="#ebebeb"/><rect x="583" y="85" width="27" height="15" fill="#f0f0f0"/>
    <!-- Row 5 - harmonic band -->
    <rect x="70" y="100" width="27" height="15" fill="#ddd"/><rect x="97" y="100" width="27" height="15" fill="#f59e0b"/><rect x="124" y="100" width="27" height="15" fill="#f59e0b"/><rect x="151" y="100" width="27" height="15" fill="#4f46e5"/><rect x="178" y="100" width="27" height="15" fill="#f59e0b"/><rect x="205" y="100" width="27" height="15" fill="#f59e0b"/><rect x="232" y="100" width="27" height="15" fill="#ddd"/><rect x="259" y="100" width="27" height="15" fill="#f59e0b"/><rect x="286" y="100" width="27" height="15" fill="#f59e0b"/><rect x="313" y="100" width="27" height="15" fill="#4f46e5"/><rect x="340" y="100" width="27" height="15" fill="#f59e0b"/><rect x="367" y="100" width="27" height="15" fill="#f59e0b"/><rect x="394" y="100" width="27" height="15" fill="#ddd"/><rect x="421" y="100" width="27" height="15" fill="#f59e0b"/><rect x="448" y="100" width="27" height="15" fill="#4f46e5"/><rect x="475" y="100" width="27" height="15" fill="#f59e0b"/><rect x="502" y="100" width="27" height="15" fill="#f59e0b"/><rect x="529" y="100" width="27" height="15" fill="#ddd"/><rect x="556" y="100" width="27" height="15" fill="#f59e0b"/><rect x="583" y="100" width="27" height="15" fill="#ddd"/>
    <!-- Row 6 -->
    <rect x="70" y="115" width="27" height="15" fill="#ebebeb"/><rect x="97" y="115" width="27" height="15" fill="#ddd"/><rect x="124" y="115" width="27" height="15" fill="#ddd"/><rect x="151" y="115" width="27" height="15" fill="#f59e0b"/><rect x="178" y="115" width="27" height="15" fill="#ddd"/><rect x="205" y="115" width="27" height="15" fill="#ddd"/><rect x="232" y="115" width="27" height="15" fill="#ebebeb"/><rect x="259" y="115" width="27" height="15" fill="#ddd"/><rect x="286" y="115" width="27" height="15" fill="#ddd"/><rect x="313" y="115" width="27" height="15" fill="#f59e0b"/><rect x="340" y="115" width="27" height="15" fill="#ddd"/><rect x="367" y="115" width="27" height="15" fill="#ddd"/><rect x="394" y="115" width="27" height="15" fill="#ebebeb"/><rect x="421" y="115" width="27" height="15" fill="#ddd"/><rect x="448" y="115" width="27" height="15" fill="#f59e0b"/><rect x="475" y="115" width="27" height="15" fill="#ddd"/><rect x="502" y="115" width="27" height="15" fill="#ddd"/><rect x="529" y="115" width="27" height="15" fill="#ebebeb"/><rect x="556" y="115" width="27" height="15" fill="#ddd"/><rect x="583" y="115" width="27" height="15" fill="#ebebeb"/>
    <!-- Row 7 -->
    <rect x="70" y="130" width="27" height="15" fill="#f0f0f0"/><rect x="97" y="130" width="27" height="15" fill="#f0f0f0"/><rect x="124" y="130" width="27" height="15" fill="#ebebeb"/><rect x="151" y="130" width="27" height="15" fill="#ddd"/><rect x="178" y="130" width="27" height="15" fill="#f0f0f0"/><rect x="205" y="130" width="27" height="15" fill="#f0f0f0"/><rect x="232" y="130" width="27" height="15" fill="#f0f0f0"/><rect x="259" y="130" width="27" height="15" fill="#ebebeb"/><rect x="286" y="130" width="27" height="15" fill="#f0f0f0"/><rect x="313" y="130" width="27" height="15" fill="#ddd"/><rect x="340" y="130" width="27" height="15" fill="#f0f0f0"/><rect x="367" y="130" width="27" height="15" fill="#f0f0f0"/><rect x="394" y="130" width="27" height="15" fill="#f0f0f0"/><rect x="421" y="130" width="27" height="15" fill="#ebebeb"/><rect x="448" y="130" width="27" height="15" fill="#ddd"/><rect x="475" y="130" width="27" height="15" fill="#f0f0f0"/><rect x="502" y="130" width="27" height="15" fill="#f0f0f0"/><rect x="529" y="130" width="27" height="15" fill="#f0f0f0"/><rect x="556" y="130" width="27" height="15" fill="#ebebeb"/><rect x="583" y="130" width="27" height="15" fill="#f0f0f0"/>
    <!-- Row 8 - another harmonic -->
    <rect x="70" y="145" width="27" height="15" fill="#ddd"/><rect x="97" y="145" width="27" height="15" fill="#f59e0b"/><rect x="124" y="145" width="27" height="15" fill="#ddd"/><rect x="151" y="145" width="27" height="15" fill="#ef4444"/><rect x="178" y="145" width="27" height="15" fill="#ddd"/><rect x="205" y="145" width="27" height="15" fill="#f59e0b"/><rect x="232" y="145" width="27" height="15" fill="#ddd"/><rect x="259" y="145" width="27" height="15" fill="#f59e0b"/><rect x="286" y="145" width="27" height="15" fill="#ddd"/><rect x="313" y="145" width="27" height="15" fill="#ef4444"/><rect x="340" y="145" width="27" height="15" fill="#ddd"/><rect x="367" y="145" width="27" height="15" fill="#f59e0b"/><rect x="394" y="145" width="27" height="15" fill="#ddd"/><rect x="421" y="145" width="27" height="15" fill="#f59e0b"/><rect x="448" y="145" width="27" height="15" fill="#ef4444"/><rect x="475" y="145" width="27" height="15" fill="#ddd"/><rect x="502" y="145" width="27" height="15" fill="#f59e0b"/><rect x="529" y="145" width="27" height="15" fill="#ddd"/><rect x="556" y="145" width="27" height="15" fill="#f59e0b"/><rect x="583" y="145" width="27" height="15" fill="#ddd"/>
    <!-- Row 9 -->
    <rect x="70" y="160" width="27" height="15" fill="#ebebeb"/><rect x="97" y="160" width="27" height="15" fill="#ddd"/><rect x="124" y="160" width="27" height="15" fill="#ebebeb"/><rect x="151" y="160" width="27" height="15" fill="#f59e0b"/><rect x="178" y="160" width="27" height="15" fill="#ebebeb"/><rect x="205" y="160" width="27" height="15" fill="#ddd"/><rect x="232" y="160" width="27" height="15" fill="#ebebeb"/><rect x="259" y="160" width="27" height="15" fill="#ddd"/><rect x="286" y="160" width="27" height="15" fill="#ebebeb"/><rect x="313" y="160" width="27" height="15" fill="#f59e0b"/><rect x="340" y="160" width="27" height="15" fill="#ebebeb"/><rect x="367" y="160" width="27" height="15" fill="#ddd"/><rect x="394" y="160" width="27" height="15" fill="#ebebeb"/><rect x="421" y="160" width="27" height="15" fill="#ddd"/><rect x="448" y="160" width="27" height="15" fill="#f59e0b"/><rect x="475" y="160" width="27" height="15" fill="#ebebeb"/><rect x="502" y="160" width="27" height="15" fill="#ddd"/><rect x="529" y="160" width="27" height="15" fill="#ebebeb"/><rect x="556" y="160" width="27" height="15" fill="#ddd"/><rect x="583" y="160" width="27" height="15" fill="#ebebeb"/>
    <!-- Row 10 -->
    <rect x="70" y="175" width="27" height="15" fill="#f0f0f0"/><rect x="97" y="175" width="27" height="15" fill="#f0f0f0"/><rect x="124" y="175" width="27" height="15" fill="#f0f0f0"/><rect x="151" y="175" width="27" height="15" fill="#ddd"/><rect x="178" y="175" width="27" height="15" fill="#f0f0f0"/><rect x="205" y="175" width="27" height="15" fill="#f0f0f0"/><rect x="232" y="175" width="27" height="15" fill="#f0f0f0"/><rect x="259" y="175" width="27" height="15" fill="#f0f0f0"/><rect x="286" y="175" width="27" height="15" fill="#f0f0f0"/><rect x="313" y="175" width="27" height="15" fill="#ddd"/><rect x="340" y="175" width="27" height="15" fill="#f0f0f0"/><rect x="367" y="175" width="27" height="15" fill="#f0f0f0"/><rect x="394" y="175" width="27" height="15" fill="#f0f0f0"/><rect x="421" y="175" width="27" height="15" fill="#f0f0f0"/><rect x="448" y="175" width="27" height="15" fill="#ddd"/><rect x="475" y="175" width="27" height="15" fill="#f0f0f0"/><rect x="502" y="175" width="27" height="15" fill="#f0f0f0"/><rect x="529" y="175" width="27" height="15" fill="#f0f0f0"/><rect x="556" y="175" width="27" height="15" fill="#f0f0f0"/><rect x="583" y="175" width="27" height="15" fill="#f0f0f0"/>
    <!-- Row 11 - bass band -->
    <rect x="70" y="190" width="27" height="15" fill="#f59e0b"/><rect x="97" y="190" width="27" height="15" fill="#ddd"/><rect x="124" y="190" width="27" height="15" fill="#f59e0b"/><rect x="151" y="190" width="27" height="15" fill="#4f46e5"/><rect x="178" y="190" width="27" height="15" fill="#f59e0b"/><rect x="205" y="190" width="27" height="15" fill="#ddd"/><rect x="232" y="190" width="27" height="15" fill="#f59e0b"/><rect x="259" y="190" width="27" height="15" fill="#ddd"/><rect x="286" y="190" width="27" height="15" fill="#f59e0b"/><rect x="313" y="190" width="27" height="15" fill="#4f46e5"/><rect x="340" y="190" width="27" height="15" fill="#f59e0b"/><rect x="367" y="190" width="27" height="15" fill="#ddd"/><rect x="394" y="190" width="27" height="15" fill="#f59e0b"/><rect x="421" y="190" width="27" height="15" fill="#ddd"/><rect x="448" y="190" width="27" height="15" fill="#4f46e5"/><rect x="475" y="190" width="27" height="15" fill="#f59e0b"/><rect x="502" y="190" width="27" height="15" fill="#ddd"/><rect x="529" y="190" width="27" height="15" fill="#f59e0b"/><rect x="556" y="190" width="27" height="15" fill="#ddd"/><rect x="583" y="190" width="27" height="15" fill="#f59e0b"/>
    <!-- Row 12 -->
    <rect x="70" y="205" width="27" height="15" fill="#f59e0b"/><rect x="97" y="205" width="27" height="15" fill="#f59e0b"/><rect x="124" y="205" width="27" height="15" fill="#ef4444"/><rect x="151" y="205" width="27" height="15" fill="#ef4444"/><rect x="178" y="205" width="27" height="15" fill="#f59e0b"/><rect x="205" y="205" width="27" height="15" fill="#f59e0b"/><rect x="232" y="205" width="27" height="15" fill="#f59e0b"/><rect x="259" y="205" width="27" height="15" fill="#f59e0b"/><rect x="286" y="205" width="27" height="15" fill="#ef4444"/><rect x="313" y="205" width="27" height="15" fill="#ef4444"/><rect x="340" y="205" width="27" height="15" fill="#f59e0b"/><rect x="367" y="205" width="27" height="15" fill="#f59e0b"/><rect x="394" y="205" width="27" height="15" fill="#f59e0b"/><rect x="421" y="205" width="27" height="15" fill="#f59e0b"/><rect x="448" y="205" width="27" height="15" fill="#ef4444"/><rect x="475" y="205" width="27" height="15" fill="#f59e0b"/><rect x="502" y="205" width="27" height="15" fill="#f59e0b"/><rect x="529" y="205" width="27" height="15" fill="#f59e0b"/><rect x="556" y="205" width="27" height="15" fill="#f59e0b"/><rect x="583" y="205" width="27" height="15" fill="#f59e0b"/>
    <!-- Row 13 -->
    <rect x="70" y="220" width="27" height="15" fill="#ddd"/><rect x="97" y="220" width="27" height="15" fill="#f59e0b"/><rect x="124" y="220" width="27" height="15" fill="#f59e0b"/><rect x="151" y="220" width="27" height="15" fill="#4f46e5"/><rect x="178" y="220" width="27" height="15" fill="#f59e0b"/><rect x="205" y="220" width="27" height="15" fill="#ddd"/><rect x="232" y="220" width="27" height="15" fill="#ddd"/><rect x="259" y="220" width="27" height="15" fill="#f59e0b"/><rect x="286" y="220" width="27" height="15" fill="#f59e0b"/><rect x="313" y="220" width="27" height="15" fill="#4f46e5"/><rect x="340" y="220" width="27" height="15" fill="#f59e0b"/><rect x="367" y="220" width="27" height="15" fill="#ddd"/><rect x="394" y="220" width="27" height="15" fill="#ddd"/><rect x="421" y="220" width="27" height="15" fill="#f59e0b"/><rect x="448" y="220" width="27" height="15" fill="#4f46e5"/><rect x="475" y="220" width="27" height="15" fill="#f59e0b"/><rect x="502" y="220" width="27" height="15" fill="#ddd"/><rect x="529" y="220" width="27" height="15" fill="#ddd"/><rect x="556" y="220" width="27" height="15" fill="#f59e0b"/><rect x="583" y="220" width="27" height="15" fill="#ddd"/>
    <!-- Row 14 (bottom = low freq) -->
    <rect x="70" y="235" width="27" height="15" fill="#ddd"/><rect x="97" y="235" width="27" height="15" fill="#ddd"/><rect x="124" y="235" width="27" height="15" fill="#f59e0b"/><rect x="151" y="235" width="27" height="15" fill="#ef4444"/><rect x="178" y="235" width="27" height="15" fill="#ddd"/><rect x="205" y="235" width="27" height="15" fill="#ddd"/><rect x="232" y="235" width="27" height="15" fill="#ddd"/><rect x="259" y="235" width="27" height="15" fill="#ddd"/><rect x="286" y="235" width="27" height="15" fill="#f59e0b"/><rect x="313" y="235" width="27" height="15" fill="#ef4444"/><rect x="340" y="235" width="27" height="15" fill="#ddd"/><rect x="367" y="235" width="27" height="15" fill="#ddd"/><rect x="394" y="235" width="27" height="15" fill="#ddd"/><rect x="421" y="235" width="27" height="15" fill="#ddd"/><rect x="448" y="235" width="27" height="15" fill="#ef4444"/><rect x="475" y="235" width="27" height="15" fill="#ddd"/><rect x="502" y="235" width="27" height="15" fill="#ddd"/><rect x="529" y="235" width="27" height="15" fill="#ddd"/><rect x="556" y="235" width="27" height="15" fill="#ddd"/><rect x="583" y="235" width="27" height="15" fill="#ddd"/>
  </g>

  <!-- Color bar -->
  <rect x="630" y="25" width="18" height="225" rx="3" fill="url(#colorBar)" stroke="#e2e8f0" stroke-width="0.5"/>
  <text x="660" y="35" font-family="system-ui, sans-serif" font-size="9" fill="#64748b">Loud</text>
  <text x="660" y="248" font-family="system-ui, sans-serif" font-size="9" fill="#64748b">Quiet</text>

  <!-- Axis labels -->
  <text x="340" y="272" text-anchor="middle" font-family="system-ui, sans-serif" font-size="13" font-weight="600" fill="#0f172a">Time &#8594;</text>
  <text x="22" y="140" text-anchor="middle" font-family="system-ui, sans-serif" font-size="13" font-weight="600" fill="#0f172a" transform="rotate(-90,22,140)">Frequency &#8593;</text>
</svg>