<svg xmlns="http://www.w3.org/2000/svg" viewBox="0 0 1000 500">
  <defs>
    <linearGradient id="bgSp" x1="0" y1="0" x2="0" y2="1">
      <stop offset="0%" stop-color="#0f172a"/>
      <stop offset="100%" stop-color="#1e293b"/>
    </linearGradient>
    <linearGradient id="colorBarG" x1="0" y1="1" x2="0" y2="0">
      <stop offset="0%" stop-color="#1e293b"/>
      <stop offset="30%" stop-color="#4f46e5"/>
      <stop offset="60%" stop-color="#a855f7"/>
      <stop offset="80%" stop-color="#f59e0b"/>
      <stop offset="100%" stop-color="#fef3c7"/>
    </linearGradient>
    <filter id="shadowSp">
      <feDropShadow dx="1" dy="1" stdDeviation="2" flood-color="#000" flood-opacity="0.5"/>
    </filter>
    <pattern id="dotsSp" x="0" y="0" width="20" height="20" patternUnits="userSpaceOnUse">
      <circle cx="10" cy="10" r="0.8" fill="#334155" opacity="0.3"/>
    </pattern>
  </defs>

  <rect width="1000" height="500" fill="url(#bgSp)"/>
  <rect width="1000" height="500" fill="url(#dotsSp)"/>

  <!-- Title -->
  <text x="460" y="32" text-anchor="middle" font-family="system-ui, sans-serif" font-size="20" font-weight="bold" fill="#e2e8f0">Spectrogram: Time &#xd7; Frequency &#xd7; Intensity</text>

  <!-- Axes -->
  <line x1="80" y1="50" x2="80" y2="430" stroke="#475569" stroke-width="2"/>
  <line x1="80" y1="430" x2="880" y2="430" stroke="#475569" stroke-width="2"/>
  <text x="480" y="465" text-anchor="middle" font-family="system-ui, sans-serif" font-size="14" fill="#94a3b8">Time (seconds) &#x2192;</text>
  <text x="30" y="240" text-anchor="middle" font-family="system-ui, sans-serif" font-size="14" fill="#94a3b8" transform="rotate(-90,30,240)">Frequency (Hz) &#x2191;</text>

  <!-- Time labels -->
  <text x="80" y="448" text-anchor="middle" font-family="system-ui, sans-serif" font-size="11" fill="#64748b">0.0</text>
  <text x="240" y="448" text-anchor="middle" font-family="system-ui, sans-serif" font-size="11" fill="#64748b">0.5</text>
  <text x="400" y="448" text-anchor="middle" font-family="system-ui, sans-serif" font-size="11" fill="#64748b">1.0</text>
  <text x="560" y="448" text-anchor="middle" font-family="system-ui, sans-serif" font-size="11" fill="#64748b">1.5</text>
  <text x="720" y="448" text-anchor="middle" font-family="system-ui, sans-serif" font-size="11" fill="#64748b">2.0</text>
  <text x="880" y="448" text-anchor="middle" font-family="system-ui, sans-serif" font-size="11" fill="#64748b">2.5</text>

  <!-- Frequency labels -->
  <text x="72" y="424" text-anchor="end" font-family="system-ui, sans-serif" font-size="11" fill="#64748b">100</text>
  <text x="72" y="330" text-anchor="end" font-family="system-ui, sans-serif" font-size="11" fill="#64748b">500</text>
  <text x="72" y="240" text-anchor="end" font-family="system-ui, sans-serif" font-size="11" fill="#64748b">1k</text>
  <text x="72" y="145" text-anchor="end" font-family="system-ui, sans-serif" font-size="11" fill="#64748b">2k</text>
  <text x="72" y="60" text-anchor="end" font-family="system-ui, sans-serif" font-size="11" fill="#64748b">4k</text>

  <!-- Spectrogram heatmap: 30 cols x 20 rows -->
  <!-- I'll generate a realistic pattern with horizontal harmonic bands and vertical beat transients -->
  <!-- Using a grid approach: each cell is ~26.7x19 px -->
  <g>
    <!-- Row 1 (top, high freq ~4kHz) - mostly dark -->
    <rect x="82" y="50" width="26.7" height="19" fill="#1e293b"/><rect x="108.7" y="50" width="26.7" height="19" fill="#1e293b"/>
    <rect x="135.4" y="50" width="26.7" height="19" fill="#252f45"/><rect x="162.1" y="50" width="26.7" height="19" fill="#1e293b"/>
    <rect x="188.8" y="50" width="26.7" height="19" fill="#1e293b"/><rect x="215.5" y="50" width="26.7" height="19" fill="#2d3a52"/>
    <rect x="242.2" y="50" width="26.7" height="19" fill="#1e293b"/><rect x="268.9" y="50" width="26.7" height="19" fill="#1e293b"/>
    <rect x="295.6" y="50" width="26.7" height="19" fill="#1e293b"/><rect x="322.3" y="50" width="26.7" height="19" fill="#252f45"/>
    <rect x="349" y="50" width="26.7" height="19" fill="#1e293b"/><rect x="375.7" y="50" width="26.7" height="19" fill="#1e293b"/>
    <rect x="402.4" y="50" width="26.7" height="19" fill="#1e293b"/><rect x="429.1" y="50" width="26.7" height="19" fill="#2d3a52"/>
    <rect x="455.8" y="50" width="26.7" height="19" fill="#1e293b"/><rect x="482.5" y="50" width="26.7" height="19" fill="#1e293b"/>
    <rect x="509.2" y="50" width="26.7" height="19" fill="#252f45"/><rect x="535.9" y="50" width="26.7" height="19" fill="#1e293b"/>
    <rect x="562.6" y="50" width="26.7" height="19" fill="#1e293b"/><rect x="589.3" y="50" width="26.7" height="19" fill="#1e293b"/>
    <rect x="616" y="50" width="26.7" height="19" fill="#2d3a52"/><rect x="642.7" y="50" width="26.7" height="19" fill="#1e293b"/>
    <rect x="669.4" y="50" width="26.7" height="19" fill="#1e293b"/><rect x="696.1" y="50" width="26.7" height="19" fill="#1e293b"/>
    <rect x="722.8" y="50" width="26.7" height="19" fill="#252f45"/><rect x="749.5" y="50" width="26.7" height="19" fill="#1e293b"/>
    <rect x="776.2" y="50" width="26.7" height="19" fill="#1e293b"/><rect x="802.9" y="50" width="26.7" height="19" fill="#1e293b"/>
    <rect x="829.6" y="50" width="26.7" height="19" fill="#1e293b"/><rect x="856.3" y="50" width="26.7" height="19" fill="#252f45"/>

    <!-- Row 3 (~3kHz) - some harmonic content -->
    <rect x="82" y="88" width="26.7" height="19" fill="#1e293b"/><rect x="108.7" y="88" width="26.7" height="19" fill="#2d3a52"/>
    <rect x="135.4" y="88" width="26.7" height="19" fill="#3b3f8a"/><rect x="162.1" y="88" width="26.7" height="19" fill="#2d3a52"/>
    <rect x="188.8" y="88" width="26.7" height="19" fill="#1e293b"/><rect x="215.5" y="88" width="26.7" height="19" fill="#4f46e5"/>
    <rect x="242.2" y="88" width="26.7" height="19" fill="#3b3f8a"/><rect x="268.9" y="88" width="26.7" height="19" fill="#2d3a52"/>
    <rect x="295.6" y="88" width="26.7" height="19" fill="#1e293b"/><rect x="322.3" y="88" width="26.7" height="19" fill="#3b3f8a"/>
    <rect x="349" y="88" width="26.7" height="19" fill="#2d3a52"/><rect x="375.7" y="88" width="26.7" height="19" fill="#1e293b"/>
    <rect x="402.4" y="88" width="26.7" height="19" fill="#2d3a52"/><rect x="429.1" y="88" width="26.7" height="19" fill="#4f46e5"/>
    <rect x="455.8" y="88" width="26.7" height="19" fill="#3b3f8a"/><rect x="482.5" y="88" width="26.7" height="19" fill="#2d3a52"/>
    <rect x="509.2" y="88" width="26.7" height="19" fill="#3b3f8a"/><rect x="535.9" y="88" width="26.7" height="19" fill="#2d3a52"/>
    <rect x="562.6" y="88" width="26.7" height="19" fill="#1e293b"/><rect x="589.3" y="88" width="26.7" height="19" fill="#2d3a52"/>
    <rect x="616" y="88" width="26.7" height="19" fill="#4f46e5"/><rect x="642.7" y="88" width="26.7" height="19" fill="#3b3f8a"/>
    <rect x="669.4" y="88" width="26.7" height="19" fill="#2d3a52"/><rect x="696.1" y="88" width="26.7" height="19" fill="#1e293b"/>
    <rect x="722.8" y="88" width="26.7" height="19" fill="#3b3f8a"/><rect x="749.5" y="88" width="26.7" height="19" fill="#2d3a52"/>
    <rect x="776.2" y="88" width="26.7" height="19" fill="#1e293b"/><rect x="802.9" y="88" width="26.7" height="19" fill="#2d3a52"/>
    <rect x="829.6" y="88" width="26.7" height="19" fill="#3b3f8a"/><rect x="856.3" y="88" width="26.7" height="19" fill="#2d3a52"/>

    <!-- Row 5 (~2.5kHz) - stronger harmonic -->
    <rect x="82" y="126" width="26.7" height="19" fill="#2d3a52"/><rect x="108.7" y="126" width="26.7" height="19" fill="#4f46e5"/>
    <rect x="135.4" y="126" width="26.7" height="19" fill="#6366f1"/><rect x="162.1" y="126" width="26.7" height="19" fill="#4f46e5"/>
    <rect x="188.8" y="126" width="26.7" height="19" fill="#2d3a52"/><rect x="215.5" y="126" width="26.7" height="19" fill="#818cf8"/>
    <rect x="242.2" y="126" width="26.7" height="19" fill="#6366f1"/><rect x="268.9" y="126" width="26.7" height="19" fill="#4f46e5"/>
    <rect x="295.6" y="126" width="26.7" height="19" fill="#2d3a52"/><rect x="322.3" y="126" width="26.7" height="19" fill="#4f46e5"/>
    <rect x="349" y="126" width="26.7" height="19" fill="#6366f1"/><rect x="375.7" y="126" width="26.7" height="19" fill="#4f46e5"/>
    <rect x="402.4" y="126" width="26.7" height="19" fill="#3b3f8a"/><rect x="429.1" y="126" width="26.7" height="19" fill="#818cf8"/>
    <rect x="455.8" y="126" width="26.7" height="19" fill="#6366f1"/><rect x="482.5" y="126" width="26.7" height="19" fill="#4f46e5"/>
    <rect x="509.2" y="126" width="26.7" height="19" fill="#6366f1"/><rect x="535.9" y="126" width="26.7" height="19" fill="#4f46e5"/>
    <rect x="562.6" y="126" width="26.7" height="19" fill="#3b3f8a"/><rect x="589.3" y="126" width="26.7" height="19" fill="#4f46e5"/>
    <rect x="616" y="126" width="26.7" height="19" fill="#818cf8"/><rect x="642.7" y="126" width="26.7" height="19" fill="#6366f1"/>
    <rect x="669.4" y="126" width="26.7" height="19" fill="#4f46e5"/><rect x="696.1" y="126" width="26.7" height="19" fill="#2d3a52"/>
    <rect x="722.8" y="126" width="26.7" height="19" fill="#4f46e5"/><rect x="749.5" y="126" width="26.7" height="19" fill="#6366f1"/>
    <rect x="776.2" y="126" width="26.7" height="19" fill="#4f46e5"/><rect x="802.9" y="126" width="26.7" height="19" fill="#3b3f8a"/>
    <rect x="829.6" y="126" width="26.7" height="19" fill="#4f46e5"/><rect x="856.3" y="126" width="26.7" height="19" fill="#6366f1"/>

    <!-- Row 7 (~2kHz) - second harmonic band -->
    <rect x="82" y="164" width="26.7" height="19" fill="#1e293b"/><rect x="108.7" y="164" width="26.7" height="19" fill="#2d3a52"/>
    <rect x="135.4" y="164" width="26.7" height="19" fill="#3b3f8a"/><rect x="162.1" y="164" width="26.7" height="19" fill="#2d3a52"/>
    <rect x="188.8" y="164" width="26.7" height="19" fill="#1e293b"/><rect x="215.5" y="164" width="26.7" height="19" fill="#3b3f8a"/>
    <rect x="242.2" y="164" width="26.7" height="19" fill="#2d3a52"/><rect x="268.9" y="164" width="26.7" height="19" fill="#1e293b"/>
    <rect x="295.6" y="164" width="26.7" height="19" fill="#1e293b"/><rect x="322.3" y="164" width="26.7" height="19" fill="#2d3a52"/>
    <rect x="349" y="164" width="26.7" height="19" fill="#3b3f8a"/><rect x="375.7" y="164" width="26.7" height="19" fill="#2d3a52"/>
    <rect x="402.4" y="164" width="26.7" height="19" fill="#1e293b"/><rect x="429.1" y="164" width="26.7" height="19" fill="#3b3f8a"/>
    <rect x="455.8" y="164" width="26.7" height="19" fill="#2d3a52"/><rect x="482.5" y="164" width="26.7" height="19" fill="#1e293b"/>
    <rect x="509.2" y="164" width="26.7" height="19" fill="#2d3a52"/><rect x="535.9" y="164" width="26.7" height="19" fill="#1e293b"/>
    <rect x="562.6" y="164" width="26.7" height="19" fill="#1e293b"/><rect x="589.3" y="164" width="26.7" height="19" fill="#2d3a52"/>
    <rect x="616" y="164" width="26.7" height="19" fill="#3b3f8a"/><rect x="642.7" y="164" width="26.7" height="19" fill="#2d3a52"/>
    <rect x="669.4" y="164" width="26.7" height="19" fill="#1e293b"/><rect x="696.1" y="164" width="26.7" height="19" fill="#1e293b"/>
    <rect x="722.8" y="164" width="26.7" height="19" fill="#2d3a52"/><rect x="749.5" y="164" width="26.7" height="19" fill="#3b3f8a"/>
    <rect x="776.2" y="164" width="26.7" height="19" fill="#2d3a52"/><rect x="802.9" y="164" width="26.7" height="19" fill="#1e293b"/>
    <rect x="829.6" y="164" width="26.7" height="19" fill="#2d3a52"/><rect x="856.3" y="164" width="26.7" height="19" fill="#3b3f8a"/>

    <!-- Row 9 (~1.5kHz) - mid-range content -->
    <rect x="82" y="202" width="26.7" height="19" fill="#3b3f8a"/><rect x="108.7" y="202" width="26.7" height="19" fill="#6366f1"/>
    <rect x="135.4" y="202" width="26.7" height="19" fill="#a855f7"/><rect x="162.1" y="202" width="26.7" height="19" fill="#6366f1"/>
    <rect x="188.8" y="202" width="26.7" height="19" fill="#3b3f8a"/><rect x="215.5" y="202" width="26.7" height="19" fill="#c084fc"/>
    <rect x="242.2" y="202" width="26.7" height="19" fill="#a855f7"/><rect x="268.9" y="202" width="26.7" height="19" fill="#6366f1"/>
    <rect x="295.6" y="202" width="26.7" height="19" fill="#3b3f8a"/><rect x="322.3" y="202" width="26.7" height="19" fill="#6366f1"/>
    <rect x="349" y="202" width="26.7" height="19" fill="#a855f7"/><rect x="375.7" y="202" width="26.7" height="19" fill="#6366f1"/>
    <rect x="402.4" y="202" width="26.7" height="19" fill="#4f46e5"/><rect x="429.1" y="202" width="26.7" height="19" fill="#c084fc"/>
    <rect x="455.8" y="202" width="26.7" height="19" fill="#a855f7"/><rect x="482.5" y="202" width="26.7" height="19" fill="#6366f1"/>
    <rect x="509.2" y="202" width="26.7" height="19" fill="#a855f7"/><rect x="535.9" y="202" width="26.7" height="19" fill="#6366f1"/>
    <rect x="562.6" y="202" width="26.7" height="19" fill="#4f46e5"/><rect x="589.3" y="202" width="26.7" height="19" fill="#6366f1"/>
    <rect x="616" y="202" width="26.7" height="19" fill="#c084fc"/><rect x="642.7" y="202" width="26.7" height="19" fill="#a855f7"/>
    <rect x="669.4" y="202" width="26.7" height="19" fill="#6366f1"/><rect x="696.1" y="202" width="26.7" height="19" fill="#3b3f8a"/>
    <rect x="722.8" y="202" width="26.7" height="19" fill="#6366f1"/><rect x="749.5" y="202" width="26.7" height="19" fill="#a855f7"/>
    <rect x="776.2" y="202" width="26.7" height="19" fill="#6366f1"/><rect x="802.9" y="202" width="26.7" height="19" fill="#4f46e5"/>
    <rect x="829.6" y="202" width="26.7" height="19" fill="#6366f1"/><rect x="856.3" y="202" width="26.7" height="19" fill="#a855f7"/>

    <!-- Row 11 (~1kHz) - fundamental harmonic (brightest) -->
    <rect x="82" y="240" width="26.7" height="19" fill="#6366f1"/><rect x="108.7" y="240" width="26.7" height="19" fill="#a855f7"/>
    <rect x="135.4" y="240" width="26.7" height="19" fill="#f59e0b"/><rect x="162.1" y="240" width="26.7" height="19" fill="#a855f7"/>
    <rect x="188.8" y="240" width="26.7" height="19" fill="#6366f1"/><rect x="215.5" y="240" width="26.7" height="19" fill="#fef3c7"/>
    <rect x="242.2" y="240" width="26.7" height="19" fill="#f59e0b"/><rect x="268.9" y="240" width="26.7" height="19" fill="#a855f7"/>
    <rect x="295.6" y="240" width="26.7" height="19" fill="#6366f1"/><rect x="322.3" y="240" width="26.7" height="19" fill="#a855f7"/>
    <rect x="349" y="240" width="26.7" height="19" fill="#f59e0b"/><rect x="375.7" y="240" width="26.7" height="19" fill="#a855f7"/>
    <rect x="402.4" y="240" width="26.7" height="19" fill="#6366f1"/><rect x="429.1" y="240" width="26.7" height="19" fill="#fef3c7"/>
    <rect x="455.8" y="240" width="26.7" height="19" fill="#f59e0b"/><rect x="482.5" y="240" width="26.7" height="19" fill="#a855f7"/>
    <rect x="509.2" y="240" width="26.7" height="19" fill="#f59e0b"/><rect x="535.9" y="240" width="26.7" height="19" fill="#a855f7"/>
    <rect x="562.6" y="240" width="26.7" height="19" fill="#6366f1"/><rect x="589.3" y="240" width="26.7" height="19" fill="#a855f7"/>
    <rect x="616" y="240" width="26.7" height="19" fill="#fef3c7"/><rect x="642.7" y="240" width="26.7" height="19" fill="#f59e0b"/>
    <rect x="669.4" y="240" width="26.7" height="19" fill="#a855f7"/><rect x="696.1" y="240" width="26.7" height="19" fill="#6366f1"/>
    <rect x="722.8" y="240" width="26.7" height="19" fill="#a855f7"/><rect x="749.5" y="240" width="26.7" height="19" fill="#f59e0b"/>
    <rect x="776.2" y="240" width="26.7" height="19" fill="#a855f7"/><rect x="802.9" y="240" width="26.7" height="19" fill="#6366f1"/>
    <rect x="829.6" y="240" width="26.7" height="19" fill="#a855f7"/><rect x="856.3" y="240" width="26.7" height="19" fill="#f59e0b"/>

    <!-- Row 13 (~800Hz) - moderate -->
    <rect x="82" y="278" width="26.7" height="19" fill="#3b3f8a"/><rect x="108.7" y="278" width="26.7" height="19" fill="#4f46e5"/>
    <rect x="135.4" y="278" width="26.7" height="19" fill="#6366f1"/><rect x="162.1" y="278" width="26.7" height="19" fill="#4f46e5"/>
    <rect x="188.8" y="278" width="26.7" height="19" fill="#3b3f8a"/><rect x="215.5" y="278" width="26.7" height="19" fill="#818cf8"/>
    <rect x="242.2" y="278" width="26.7" height="19" fill="#6366f1"/><rect x="268.9" y="278" width="26.7" height="19" fill="#4f46e5"/>
    <rect x="295.6" y="278" width="26.7" height="19" fill="#3b3f8a"/><rect x="322.3" y="278" width="26.7" height="19" fill="#4f46e5"/>
    <rect x="349" y="278" width="26.7" height="19" fill="#6366f1"/><rect x="375.7" y="278" width="26.7" height="19" fill="#4f46e5"/>
    <rect x="402.4" y="278" width="26.7" height="19" fill="#3b3f8a"/><rect x="429.1" y="278" width="26.7" height="19" fill="#818cf8"/>
    <rect x="455.8" y="278" width="26.7" height="19" fill="#6366f1"/><rect x="482.5" y="278" width="26.7" height="19" fill="#4f46e5"/>
    <rect x="509.2" y="278" width="26.7" height="19" fill="#6366f1"/><rect x="535.9" y="278" width="26.7" height="19" fill="#4f46e5"/>
    <rect x="562.6" y="278" width="26.7" height="19" fill="#3b3f8a"/><rect x="589.3" y="278" width="26.7" height="19" fill="#4f46e5"/>
    <rect x="616" y="278" width="26.7" height="19" fill="#818cf8"/><rect x="642.7" y="278" width="26.7" height="19" fill="#6366f1"/>
    <rect x="669.4" y="278" width="26.7" height="19" fill="#4f46e5"/><rect x="696.1" y="278" width="26.7" height="19" fill="#3b3f8a"/>
    <rect x="722.8" y="278" width="26.7" height="19" fill="#4f46e5"/><rect x="749.5" y="278" width="26.7" height="19" fill="#6366f1"/>
    <rect x="776.2" y="278" width="26.7" height="19" fill="#4f46e5"/><rect x="802.9" y="278" width="26.7" height="19" fill="#3b3f8a"/>
    <rect x="829.6" y="278" width="26.7" height="19" fill="#4f46e5"/><rect x="856.3" y="278" width="26.7" height="19" fill="#6366f1"/>

    <!-- Row 15 (~500Hz) - second fundamental -->
    <rect x="82" y="316" width="26.7" height="19" fill="#4f46e5"/><rect x="108.7" y="316" width="26.7" height="19" fill="#818cf8"/>
    <rect x="135.4" y="316" width="26.7" height="19" fill="#c084fc"/><rect x="162.1" y="316" width="26.7" height="19" fill="#818cf8"/>
    <rect x="188.8" y="316" width="26.7" height="19" fill="#4f46e5"/><rect x="215.5" y="316" width="26.7" height="19" fill="#f59e0b"/>
    <rect x="242.2" y="316" width="26.7" height="19" fill="#c084fc"/><rect x="268.9" y="316" width="26.7" height="19" fill="#818cf8"/>
    <rect x="295.6" y="316" width="26.7" height="19" fill="#4f46e5"/><rect x="322.3" y="316" width="26.7" height="19" fill="#818cf8"/>
    <rect x="349" y="316" width="26.7" height="19" fill="#c084fc"/><rect x="375.7" y="316" width="26.7" height="19" fill="#818cf8"/>
    <rect x="402.4" y="316" width="26.7" height="19" fill="#6366f1"/><rect x="429.1" y="316" width="26.7" height="19" fill="#f59e0b"/>
    <rect x="455.8" y="316" width="26.7" height="19" fill="#c084fc"/><rect x="482.5" y="316" width="26.7" height="19" fill="#818cf8"/>
    <rect x="509.2" y="316" width="26.7" height="19" fill="#c084fc"/><rect x="535.9" y="316" width="26.7" height="19" fill="#818cf8"/>
    <rect x="562.6" y="316" width="26.7" height="19" fill="#6366f1"/><rect x="589.3" y="316" width="26.7" height="19" fill="#818cf8"/>
    <rect x="616" y="316" width="26.7" height="19" fill="#f59e0b"/><rect x="642.7" y="316" width="26.7" height="19" fill="#c084fc"/>
    <rect x="669.4" y="316" width="26.7" height="19" fill="#818cf8"/><rect x="696.1" y="316" width="26.7" height="19" fill="#4f46e5"/>
    <rect x="722.8" y="316" width="26.7" height="19" fill="#818cf8"/><rect x="749.5" y="316" width="26.7" height="19" fill="#c084fc"/>
    <rect x="776.2" y="316" width="26.7" height="19" fill="#818cf8"/><rect x="802.9" y="316" width="26.7" height="19" fill="#6366f1"/>
    <rect x="829.6" y="316" width="26.7" height="19" fill="#818cf8"/><rect x="856.3" y="316" width="26.7" height="19" fill="#c084fc"/>

    <!-- Row 17 (~300Hz) - moderate bass -->
    <rect x="82" y="354" width="26.7" height="19" fill="#2d3a52"/><rect x="108.7" y="354" width="26.7" height="19" fill="#4f46e5"/>
    <rect x="135.4" y="354" width="26.7" height="19" fill="#6366f1"/><rect x="162.1" y="354" width="26.7" height="19" fill="#4f46e5"/>
    <rect x="188.8" y="354" width="26.7" height="19" fill="#2d3a52"/><rect x="215.5" y="354" width="26.7" height="19" fill="#6366f1"/>
    <rect x="242.2" y="354" width="26.7" height="19" fill="#4f46e5"/><rect x="268.9" y="354" width="26.7" height="19" fill="#3b3f8a"/>
    <rect x="295.6" y="354" width="26.7" height="19" fill="#2d3a52"/><rect x="322.3" y="354" width="26.7" height="19" fill="#4f46e5"/>
    <rect x="349" y="354" width="26.7" height="19" fill="#6366f1"/><rect x="375.7" y="354" width="26.7" height="19" fill="#4f46e5"/>
    <rect x="402.4" y="354" width="26.7" height="19" fill="#3b3f8a"/><rect x="429.1" y="354" width="26.7" height="19" fill="#6366f1"/>
    <rect x="455.8" y="354" width="26.7" height="19" fill="#4f46e5"/><rect x="482.5" y="354" width="26.7" height="19" fill="#3b3f8a"/>
    <rect x="509.2" y="354" width="26.7" height="19" fill="#4f46e5"/><rect x="535.9" y="354" width="26.7" height="19" fill="#3b3f8a"/>
    <rect x="562.6" y="354" width="26.7" height="19" fill="#2d3a52"/><rect x="589.3" y="354" width="26.7" height="19" fill="#4f46e5"/>
    <rect x="616" y="354" width="26.7" height="19" fill="#6366f1"/><rect x="642.7" y="354" width="26.7" height="19" fill="#4f46e5"/>
    <rect x="669.4" y="354" width="26.7" height="19" fill="#3b3f8a"/><rect x="696.1" y="354" width="26.7" height="19" fill="#2d3a52"/>
    <rect x="722.8" y="354" width="26.7" height="19" fill="#4f46e5"/><rect x="749.5" y="354" width="26.7" height="19" fill="#6366f1"/>
    <rect x="776.2" y="354" width="26.7" height="19" fill="#4f46e5"/><rect x="802.9" y="354" width="26.7" height="19" fill="#3b3f8a"/>
    <rect x="829.6" y="354" width="26.7" height="19" fill="#4f46e5"/><rect x="856.3" y="354" width="26.7" height="19" fill="#6366f1"/>

    <!-- Row 19 (~150Hz) - bass -->
    <rect x="82" y="392" width="26.7" height="19" fill="#3b3f8a"/><rect x="108.7" y="392" width="26.7" height="19" fill="#6366f1"/>
    <rect x="135.4" y="392" width="26.7" height="19" fill="#818cf8"/><rect x="162.1" y="392" width="26.7" height="19" fill="#6366f1"/>
    <rect x="188.8" y="392" width="26.7" height="19" fill="#3b3f8a"/><rect x="215.5" y="392" width="26.7" height="19" fill="#a855f7"/>
    <rect x="242.2" y="392" width="26.7" height="19" fill="#818cf8"/><rect x="268.9" y="392" width="26.7" height="19" fill="#6366f1"/>
    <rect x="295.6" y="392" width="26.7" height="19" fill="#3b3f8a"/><rect x="322.3" y="392" width="26.7" height="19" fill="#6366f1"/>
    <rect x="349" y="392" width="26.7" height="19" fill="#818cf8"/><rect x="375.7" y="392" width="26.7" height="19" fill="#6366f1"/>
    <rect x="402.4" y="392" width="26.7" height="19" fill="#4f46e5"/><rect x="429.1" y="392" width="26.7" height="19" fill="#a855f7"/>
    <rect x="455.8" y="392" width="26.7" height="19" fill="#818cf8"/><rect x="482.5" y="392" width="26.7" height="19" fill="#6366f1"/>
    <rect x="509.2" y="392" width="26.7" height="19" fill="#818cf8"/><rect x="535.9" y="392" width="26.7" height="19" fill="#6366f1"/>
    <rect x="562.6" y="392" width="26.7" height="19" fill="#4f46e5"/><rect x="589.3" y="392" width="26.7" height="19" fill="#6366f1"/>
    <rect x="616" y="392" width="26.7" height="19" fill="#a855f7"/><rect x="642.7" y="392" width="26.7" height="19" fill="#818cf8"/>
    <rect x="669.4" y="392" width="26.7" height="19" fill="#6366f1"/><rect x="696.1" y="392" width="26.7" height="19" fill="#3b3f8a"/>
    <rect x="722.8" y="392" width="26.7" height="19" fill="#6366f1"/><rect x="749.5" y="392" width="26.7" height="19" fill="#818cf8"/>
    <rect x="776.2" y="392" width="26.7" height="19" fill="#6366f1"/><rect x="802.9" y="392" width="26.7" height="19" fill="#4f46e5"/>
    <rect x="829.6" y="392" width="26.7" height="19" fill="#6366f1"/><rect x="856.3" y="392" width="26.7" height="19" fill="#818cf8"/>

    <!-- Vertical beat transients (bright indigo columns at beat positions) -->
    <!-- Beat at col 5 (215.5) -->
    <rect x="215.5" y="50" width="26.7" height="380" fill="#6366f1" opacity="0.15"/>
    <!-- Beat at col 13 (429.1) -->
    <rect x="429.1" y="50" width="26.7" height="380" fill="#6366f1" opacity="0.15"/>
    <!-- Beat at col 20 (616) -->
    <rect x="616" y="50" width="26.7" height="380" fill="#6366f1" opacity="0.15"/>

    <!-- Peak white spots -->
    <rect x="215.5" y="240" width="26.7" height="19" fill="#fef3c7"/>
    <rect x="429.1" y="240" width="26.7" height="19" fill="#fef3c7"/>
    <rect x="616" y="240" width="26.7" height="19" fill="#fef3c7"/>
    <rect x="215.5" y="316" width="26.7" height="19" fill="#f59e0b"/>
    <rect x="429.1" y="316" width="26.7" height="19" fill="#f59e0b"/>
    <rect x="616" y="316" width="26.7" height="19" fill="#f59e0b"/>
  </g>

  <!-- Color bar (right side) -->
  <rect x="900" y="60" width="25" height="360" rx="4" fill="url(#colorBarG)" stroke="#475569" stroke-width="1"/>
  <text x="940" y="75" font-family="system-ui, sans-serif" font-size="11" fill="#fef3c7">Loud</text>
  <text x="940" y="245" font-family="system-ui, sans-serif" font-size="11" fill="#a855f7">Medium</text>
  <text x="940" y="415" font-family="system-ui, sans-serif" font-size="11" fill="#475569">Quiet</text>
  <text x="912" y="440" text-anchor="middle" font-family="system-ui, sans-serif" font-size="10" fill="#64748b">dB</text>
</svg>